<?xml version="1.0" encoding="UTF-8"?>
<svg xmlns="http://www.w3.org/2000/svg" width="114" height="114" viewBox="0 0 114 114" fill="none">
  <g clip-path="url(#clip0_398_16748)">
    <path d="M11.4023 112.33C11.4023 112.256 24.9946 100.719 57.0469 100.719C88.1807 100.719 102.691 112.256 102.691 112.33H11.4023Z" fill="#94DBE3"></path>
    <path d="M57.046 100.719C55.0576 100.719 53.1406 100.763 51.293 100.847C78.5684 102.106 91.335 112.261 91.335 112.33H102.69C102.69 112.256 88.1798 100.719 57.046 100.719Z" fill="#94DBE3"></path>
    <path d="M77.7761 20.3822C74.0622 31.1547 64.0547 33.0086 64.0547 33.0086C64.0547 33.0086 57.4233 25.0689 61.0406 14.5762C64.8507 3.52376 74.8584 1.66992 74.8584 1.66992C74.8584 1.66992 81.5381 9.46979 77.7761 20.3822Z" fill="#F4E9CE"></path>
    <path d="M74.8575 1.66992C74.8575 1.66992 72.2125 2.16021 69.1245 4.13784C70.8214 7.2675 72.9246 13.1385 70.4275 20.382C68.6309 25.5932 65.3616 28.7171 62.4648 30.5538C63.3147 32.1226 64.0537 33.0081 64.0537 33.0081C64.0537 33.0081 74.0615 31.1545 77.7751 20.3817C81.5371 9.46979 74.8575 1.66992 74.8575 1.66992Z" fill="#F4E9CE"></path>
    <path d="M67.7973 71.0264C61.6963 71.8935 57.2048 70.6472 57.2048 70.6472C57.2048 70.6472 53.3204 55.0602 65.4594 42.8827C78.2459 30.0557 93.4602 34.2772 93.4602 34.2772C93.4602 34.2772 96.7976 46.9998 87.9537 58.8226" fill="#F4E9CE"></path>
    <path d="M93.4579 34.2772C93.4579 34.2772 89.3784 33.1459 83.6693 33.8353C85.2112 34.0285 86.1103 34.2772 86.1103 34.2772C86.1103 34.2772 89.4476 46.9998 80.6037 58.8227L60.4473 71.0264C60.2242 71.0581 60.0038 71.0861 59.7852 71.1124C61.6871 71.3468 64.5064 71.4938 67.795 71.0264L87.9514 58.8227C96.7953 46.9998 93.4579 34.2772 93.4579 34.2772Z" fill="#F4E9CE"></path>
    <path d="M42.6522 62.8519C53.4813 71.3867 51.6335 83.6204 51.6335 83.6204C51.6335 83.6204 39.9409 88.0951 29.3932 79.7818C18.2829 71.0251 20.1307 58.7917 20.1307 58.7917C20.1307 58.7917 31.6826 54.2061 42.6522 62.8519Z" fill="#F4E9CE"></path>
    <path d="M30.2343 45.2488C41.1374 59.1406 56.7422 56.7517 56.7422 56.7517C56.7422 56.7517 62.4353 41.7342 51.8155 28.2032C40.6293 13.9507 25.0244 16.3394 25.0244 16.3394C25.0244 16.3394 19.1897 31.1768 30.2343 45.2488Z" fill="#F4E9CE"></path>
    <path d="M85.1312 77.3243C75.7754 83.7929 66.6195 79.3358 66.6195 79.3358C66.6195 79.3358 65.9691 68.9981 75.082 62.6976C84.6809 56.0611 93.8366 60.5182 93.8366 60.5182C93.8366 60.5182 94.6085 70.7717 85.1312 77.3243Z" fill="#F4E9CE"></path>
    <path d="M93.8386 60.5182C93.8386 60.5182 89.0662 58.1959 82.8002 59.4013C85.086 59.8344 86.4909 60.5182 86.4909 60.5182C86.4909 60.5182 87.2626 70.7717 77.7853 77.3243C75.2486 79.0781 72.7272 80.0275 70.3984 80.4818C73.9313 81.1524 79.4953 81.2221 85.1329 77.3243C94.6105 70.7717 93.8386 60.5182 93.8386 60.5182Z" fill="#F4E9CE"></path>
    <path d="M102.967 110.445C99.6649 108.117 95.8996 106.384 92.1422 104.938C85.3626 102.329 74.0804 99.2346 58.4548 99.0573C58.7086 96.8962 59.3098 93.7922 60.7176 90.3361C62.1164 86.9025 64.0096 83.806 66.3818 81.0544C67.4957 81.5131 70.3627 82.518 74.1097 82.518C77.5796 82.518 81.803 81.6552 86.0806 78.6979C96.2286 71.6817 95.5362 60.8504 95.5017 60.3928C95.4571 59.8006 95.1013 59.2767 94.5676 59.0168C94.4151 58.9427 92.971 58.2593 90.6889 57.796C92.5499 54.8752 93.915 51.7046 94.7562 48.34C95.2783 46.2502 92.0389 45.4406 91.5159 47.53C90.6288 51.0782 89.0898 54.3867 86.9405 57.3741C83.3244 57.2888 78.7837 58.1082 74.1322 61.324C70.6653 63.7211 68.5004 66.6381 67.1497 69.4258C64.2191 69.799 61.7004 69.6618 59.994 69.452C63.3868 64.8756 72.2303 53.7837 82.1868 47.9907C84.0487 46.9074 82.3689 44.0203 80.5073 45.1039C70.8184 50.7411 62.3851 60.7763 58.3205 66.1042C58.0861 60.9058 58.9874 51.7377 66.6396 44.0614C71.6269 39.0584 77.5631 36.1594 84.2827 35.4455C87.8 35.0719 90.6295 35.4266 92.0385 35.6804C92.1868 36.5519 92.3693 37.9591 92.4003 39.7257C92.4379 41.8592 95.7775 41.8333 95.7397 39.6671C95.6791 36.201 95.0973 33.9475 95.0728 33.8533C94.9219 33.2782 94.4768 32.8269 93.9039 32.6679C93.7367 32.6216 89.7331 31.5355 84.0836 32.1081C78.8844 32.6356 71.2275 34.7284 64.2743 41.7033C63.6943 42.2853 63.1515 42.8749 62.64 43.4696C63.5779 40.582 64.6019 37.4588 65.6484 34.3178C68.6731 33.3949 76.1433 30.2325 79.3517 20.9261C83.3789 9.2438 76.4216 0.931593 76.1234 0.583359C75.736 0.130699 75.1366 -0.0810472 74.5508 0.027609C74.1031 0.11066 63.5391 2.19472 59.4583 14.0316C56.0701 23.8592 60.8984 31.5395 62.374 33.5645C61.4003 36.4894 60.4496 39.389 59.5712 42.0923C58.895 37.5744 57.1324 32.2736 53.1286 27.1723C47.0463 19.4223 39.6895 16.4369 34.5887 15.2969C29.0463 14.0583 24.9432 14.6624 24.7711 14.6889C24.1831 14.7788 23.6875 15.1749 23.4697 15.7284C23.4227 15.8478 22.3161 18.7009 21.9385 23.0763C21.7537 25.2225 25.0808 25.5091 25.2661 23.3635C25.4787 20.8987 25.9514 18.975 26.2676 17.9011C27.6988 17.8163 30.5497 17.7998 33.9955 18.5871C40.5844 20.0925 46.1377 23.6748 50.5013 29.2343C54.6351 34.5017 56.6847 40.6123 56.5929 47.3966C56.5629 49.6071 56.2979 51.5349 56.0053 53.0158C49.3993 40.7127 40.0458 31.2605 39.6357 30.849C38.1154 29.3236 35.7503 31.6809 37.2702 33.2065C37.3688 33.3056 47.0109 43.0562 53.3985 55.2279C51.906 55.1938 49.9698 55.029 47.7982 54.5488C41.2599 53.1022 35.7922 49.6263 31.5472 44.2178C28.5917 40.4517 26.6348 36.2723 25.7308 31.7955C25.3046 29.6843 22.0304 30.3452 22.4571 32.4566C23.465 37.449 25.6395 42.0998 28.9201 46.2798C34.8595 53.8474 42.1517 56.7442 47.2229 57.8416C49.75 58.3887 52.3544 58.6483 54.9404 58.5637V64.5777V64.6776V86.6839C54.4365 85.5973 53.8923 84.5689 53.3192 83.5952C53.5457 81.6187 54.3695 69.9606 43.6853 61.54C32.0929 52.4037 20.0221 57.0374 19.5138 57.2394C18.9618 57.4585 18.5675 57.9545 18.4789 58.5421C18.3976 59.0807 16.6208 71.842 28.3588 81.0932C33.8107 85.39 39.5078 86.5117 43.9705 86.5117C46.8664 86.5117 49.2413 86.0395 50.693 85.6559C53.018 89.7164 54.3924 94.1987 54.8052 99.0698C46.163 99.2159 38.1004 100.208 30.8118 102.029C28.7219 102.552 29.5315 105.791 31.6216 105.27C38.6862 103.504 46.5226 102.545 54.9404 102.408V106.246C54.9404 108.4 58.2802 108.4 58.2802 106.246V102.398C77.9755 102.594 90.5627 107.416 96.822 110.66H17.0866C18.7095 109.797 20.7874 108.819 23.3495 107.845C25.3627 107.079 24.1753 103.956 22.1623 104.723C18.0028 106.305 15.041 107.91 13.2885 108.978C9.73047 111.146 9.73047 111.669 9.73047 112.33C9.73047 113.253 10.4779 114 11.4004 114H102.689C105.228 114 104.229 111.334 102.967 110.445ZM76.0317 64.0711C83.0779 59.1998 89.7696 60.8056 92.1761 61.6486C92.0823 64.2279 91.1492 71.1333 84.1814 75.9507C77.8633 80.3192 71.7169 79.2712 68.9167 78.416C72.2085 75.3355 76.2121 72.7774 80.9108 70.7644C82.8906 69.9161 81.5759 66.8463 79.5958 67.6944C75.3564 69.5106 71.862 71.6733 68.9773 73.9902C69.8457 70.8913 71.7739 67.0149 76.0317 64.0711ZM63.4349 73.0036C64.1828 73.0036 64.9799 72.9767 65.8158 72.9159C65.2658 74.8241 65.0534 76.5025 64.9773 77.6812C61.8149 81.038 59.6959 84.5012 58.2802 87.5698V72.5799C59.4514 72.7819 61.2362 73.0036 63.4349 73.0036ZM62.6158 15.1204C65.4121 7.00922 71.7467 4.32109 74.187 3.56718C75.6367 5.70401 78.9588 11.8184 76.194 19.838C74.124 25.8428 69.9694 28.8062 67.0279 30.2082C69.1964 23.7993 71.339 17.7277 72.8934 13.9158C73.707 11.9212 70.614 10.6599 69.8009 12.6547C68.1791 16.6315 65.9694 22.8964 63.7522 29.4545C62.2337 26.5486 60.47 21.3443 62.6158 15.1204ZM30.4264 78.4701C26.1676 75.1138 23.4185 70.8416 22.2551 65.7727C21.6847 63.2874 21.6539 61.202 21.7031 60.0381C24.5496 59.2406 33.2784 57.5905 41.618 64.1635C45.7587 67.427 48.4248 71.6316 49.5425 76.6603C49.7051 77.3915 49.8206 78.0873 49.9026 78.7366C48.7904 77.396 47.6586 76.2148 46.5689 75.1926C40.8077 69.7869 35.089 67.5234 34.8483 67.4297C32.8411 66.6477 31.6292 69.7602 33.6364 70.542C33.6892 70.5624 38.9886 72.6601 44.2836 77.6282C45.9753 79.2155 47.4651 80.8981 48.7565 82.6709C45.0567 83.4253 37.4483 84.0042 30.4264 78.4701Z" fill="#1E2875"></path>
  </g>
  <defs>
    <clipPath id="clip0_398_16748">
      <rect width="114" height="114" fill="white"></rect>
    </clipPath>
  </defs>
</svg>
