<svg width="1920" height="846" viewBox="0 0 1920 846" fill="none" xmlns="http://www.w3.org/2000/svg">
<g clip-path="url(#clip0_2015_9790)">
<rect width="1920" height="846" fill="url(#paint0_linear_2015_9790)"/>
<path opacity="0.04" d="M1920.05 745.8H1889.66V814.44C1889.31 814.4 1888.95 814.36 1888.61 814.32V686.34H1879.43V618.32H1819.32V686.34H1810.15V787.42H1750.03V756.34H1687.62V670.21H1640.35V474.83H1623.37V413H1540.76V474.83H1523.78V818.2H1492.58V787.43H1448.52V719.36H1440.72V670.49H1428.33V608.94H1373.26V670.49H1360.88V719.36H1353.07V786.35H1290.66V700.22H1243.39V544.83H1226.41V483H1143.81V544.83H1126.83V818.2H1095.63V787.43H1051.58V559.35H956.13V745.8H912.3V814.44C911.95 814.4 911.6 814.36 911.25 814.32V656.34H902.07V588.32H841.96V656.34H832.79V787.42H772.67V766.34H710.25V680.21H662.99V524.83H646V463H563.4V524.83H546.42V818.2H515.21V787.43H471.16V689.36H463.36V640.49H450.97V578.94H395.9V640.49H383.51V689.36H375.71V786.35H313.3V700.22H266.03V404.83H249.05V343H166.45V404.83H149.47V818.2H118.26V787.43H74.21V559.35H-4V846.06H1920.05V745.8Z" fill="#DEEAF1"/>
<circle opacity="0.4" cx="225" cy="169" r="92" fill="url(#paint1_linear_2015_9790)"/>
</g>
<defs>
<linearGradient id="paint0_linear_2015_9790" x1="-23.6506" y1="94.5886" x2="1924.12" y2="1499.63" gradientUnits="userSpaceOnUse">
<stop stop-color="#00243C"/>
<stop offset="1" stop-color="#062941"/>
</linearGradient>
<linearGradient id="paint1_linear_2015_9790" x1="317" y1="261" x2="133" y2="77" gradientUnits="userSpaceOnUse">
<stop offset="0.0001" stop-color="white" stop-opacity="0.08"/>
<stop offset="0.793595" stop-color="white" stop-opacity="0"/>
</linearGradient>
<clipPath id="clip0_2015_9790">
<rect width="1920" height="846" fill="white"/>
</clipPath>
</defs>
</svg>
