<svg width="96" height="96" viewBox="0 0 96 96" fill="none" xmlns="http://www.w3.org/2000/svg">
<path fill-rule="evenodd" clip-rule="evenodd" d="M48 27.225C72.8438 27.225 93 48 93 48C93 48 72.8438 68.775 48 68.775C23.1562 68.775 3 48 3 48C3 48 23.1562 27.225 48 27.225Z" fill="#94B6E3"/>
<path fill-rule="evenodd" clip-rule="evenodd" d="M64.3874 50.9062C60.9374 50.9062 59.1936 55.0875 61.6499 57.525C62.0999 57.975 62.0999 58.7062 61.6499 59.1562L59.1749 61.6312C58.7249 62.0812 57.9937 62.0812 57.5437 61.6312C55.1062 59.1937 50.9249 60.9187 50.9249 64.3687C50.9249 65.0062 50.3999 65.5125 49.7812 65.5125H46.2749C45.6374 65.5125 45.1312 64.9875 45.1312 64.3687C45.1312 60.9187 40.9499 59.175 38.5124 61.6312C38.0624 62.0812 37.3312 62.0812 36.8812 61.6312L34.4062 59.1562C33.9562 58.7062 33.9562 57.975 34.4062 57.525C36.8437 55.0875 35.1187 50.9062 31.6687 50.9062C31.0312 50.9062 30.5249 50.3812 30.5249 49.7625V46.2562C30.5249 45.6187 31.0499 45.1125 31.6687 45.1125C35.1187 45.1125 36.8624 40.9312 34.4062 38.4937C33.9562 38.0437 33.9562 37.3125 34.4062 36.8625L36.8812 34.3875C37.3312 33.9375 38.0624 33.9375 38.5124 34.3875C40.9499 36.825 45.1312 35.1 45.1312 31.65C45.1312 31.0125 45.6562 30.5062 46.2749 30.5062H49.7812C50.4187 30.5062 50.9249 31.0312 50.9249 31.65C50.9249 35.1 55.1062 36.8437 57.5437 34.3875C57.9937 33.9375 58.7249 33.9375 59.1749 34.3875L61.6499 36.8625C62.0999 37.3125 62.0999 38.0437 61.6499 38.4937C59.2124 40.9312 60.9374 45.1125 64.3874 45.1125C65.0249 45.1125 65.5312 45.6375 65.5312 46.2562V49.7625C65.5312 50.3812 65.0249 50.9062 64.3874 50.9062ZM47.9999 37.95C42.4499 37.95 37.9499 42.45 37.9499 48C37.9499 53.55 42.4499 58.05 47.9999 58.05C53.5499 58.05 58.0499 53.55 58.0499 48C58.0499 42.45 53.5499 37.95 47.9999 37.95Z" fill="#F4E9CE"/>
<path fill-rule="evenodd" clip-rule="evenodd" d="M24.9937 71.0063C25.4999 71.5125 25.4999 72.3563 24.9937 72.8625L17.1187 80.7375C16.8562 81 16.5187 81.1125 16.1999 81.1125C15.8624 81.1125 15.5249 80.9813 15.2812 80.7375C14.7749 80.2313 14.7749 79.3875 15.2812 78.8813L23.1562 71.0063C23.6437 70.5 24.4874 70.5 24.9937 71.0063ZM80.7562 78.9C81.2624 79.4062 81.2624 80.25 80.7562 80.7563C80.4937 81.0188 80.1562 81.1313 79.8187 81.1313C79.4812 81.1313 79.1437 81 78.8812 80.7563L71.0062 72.8813C70.4999 72.375 70.4999 71.5312 71.0062 71.025C71.5124 70.5187 72.3562 70.5187 72.8624 71.025L80.7562 78.9ZM49.3124 81.8625V93C49.3124 93.7313 48.7312 94.3125 47.9999 94.3125C47.2687 94.3125 46.6874 93.7313 46.6874 93V81.8438C46.6874 81.1125 47.2687 80.5312 47.9999 80.5312C48.7312 80.5312 49.3124 81.1313 49.3124 81.8625ZM15.2437 17.1C14.7374 16.5937 14.7374 15.75 15.2437 15.2438C15.7499 14.7375 16.5937 14.7375 17.0999 15.2438L24.9749 23.1188C25.4812 23.625 25.4812 24.4687 24.9749 24.975C24.7124 25.2375 24.3749 25.3688 24.0562 25.3688C23.7187 25.3688 23.3812 25.2375 23.1374 24.975L15.2437 17.1ZM71.0062 24.9938C70.4999 24.4875 70.4999 23.6438 71.0062 23.1375L78.8812 15.2625C79.3874 14.7563 80.2312 14.7563 80.7374 15.2625C81.2437 15.7688 81.2437 16.6125 80.7374 17.1188L72.8624 24.9938C72.5999 25.2563 72.2812 25.3875 71.9249 25.3875C71.6062 25.3687 71.2687 25.2375 71.0062 24.9938ZM46.6874 14.1562V3C46.6874 2.26875 47.2687 1.6875 47.9999 1.6875C48.7312 1.6875 49.3124 2.26875 49.3124 3V14.1562C49.3124 14.8875 48.7312 15.4688 47.9999 15.4688C47.2687 15.4688 46.6874 14.8687 46.6874 14.1562ZM47.9999 67.4625C31.4249 67.4625 15.7312 60.375 4.74365 48C15.7312 35.625 31.4249 28.5375 47.9999 28.5375C64.5749 28.5375 80.2687 35.625 91.2562 48C80.2687 60.375 64.5749 67.4625 47.9999 67.4625ZM93.9937 47.1562C82.4812 33.6562 65.7187 25.9125 47.9999 25.9125C30.2812 25.9125 13.5187 33.6562 2.00615 47.1562C1.59365 47.6437 1.59365 48.375 2.00615 48.8625C13.5187 62.3625 30.2812 70.1062 47.9999 70.1062C65.7187 70.1062 82.4812 62.3625 93.9937 48.8625C94.4062 48.3563 94.4062 47.6437 93.9937 47.1562ZM47.9999 56.7375C52.8187 56.7375 56.7374 52.8188 56.7374 48C56.7374 43.1812 52.8187 39.2625 47.9999 39.2625C43.1812 39.2625 39.2624 43.1812 39.2624 48C39.2624 52.8188 43.1812 56.7375 47.9999 56.7375ZM47.9999 36.6375C41.7374 36.6375 36.6374 41.7375 36.6374 48C36.6374 54.2625 41.7374 59.3625 47.9999 59.3625C54.2624 59.3625 59.3624 54.2625 59.3624 48C59.3624 41.7375 54.2624 36.6375 47.9999 36.6375ZM64.2374 49.5938V46.4062C62.1749 46.35 60.3937 45.1312 59.6062 43.2C58.7999 41.2687 59.1937 39.1688 60.6187 37.65L58.3687 35.4C56.8687 36.825 54.7499 37.2187 52.8187 36.4125C50.8874 35.6062 49.6687 33.8438 49.6124 31.7812H46.4249C46.3687 33.8438 45.1499 35.625 43.2187 36.4125C41.2874 37.2187 39.1874 36.825 37.6687 35.4L35.4187 37.65C36.8437 39.15 37.2374 41.2687 36.4312 43.2C35.6249 45.1312 33.8624 46.35 31.7999 46.4062V49.5938C33.8624 49.65 35.6437 50.8688 36.4312 52.8C37.2374 54.7313 36.8437 56.8313 35.4187 58.35L37.6687 60.6C39.1687 59.175 41.2874 58.7812 43.2187 59.5875C45.1499 60.3937 46.3687 62.1562 46.4249 64.2188H49.6124C49.6687 62.1562 50.8874 60.375 52.8187 59.5875C54.7499 58.7812 56.8499 59.175 58.3687 60.6L60.6187 58.35C59.1937 56.85 58.7999 54.7313 59.6062 52.8C60.3937 50.8688 62.1562 49.65 64.2374 49.5938ZM64.3874 43.7812C63.3187 43.7812 62.4187 43.1813 62.0249 42.1875C61.6124 41.1937 61.8187 40.1438 62.5874 39.3938C63.5437 38.4375 63.5437 36.8625 62.5874 35.9062L60.1124 33.4313C59.1562 32.475 57.5812 32.475 56.6249 33.4313C55.8562 34.1813 54.8249 34.4063 53.8312 33.9938C52.8374 33.5813 52.2374 32.7 52.2374 31.6312C52.2374 30.2812 51.1312 29.175 49.7624 29.175H46.2562C44.9062 29.175 43.7999 30.2812 43.7999 31.6312C43.7999 32.7 43.1999 33.6 42.2062 33.9938C41.2124 34.4063 40.1624 34.2 39.4124 33.4313C38.4562 32.475 36.8812 32.475 35.9249 33.4313L33.4499 35.9062C32.4937 36.8625 32.4937 38.4375 33.4499 39.3938C34.2187 40.1438 34.4249 41.1937 34.0124 42.1875C33.5999 43.1813 32.7187 43.7812 31.6499 43.7812C30.2999 43.7812 29.1937 44.8875 29.1937 46.2375V49.7437C29.1937 51.1125 30.2999 52.2 31.6499 52.2C32.7187 52.2 33.5999 52.8 34.0124 53.7937C34.4249 54.7875 34.2187 55.8375 33.4499 56.5875C32.9812 57.0562 32.7374 57.675 32.7374 58.3313C32.7374 58.9875 32.9999 59.6062 33.4499 60.075L35.9249 62.55C36.8812 63.5063 38.4562 63.5063 39.4124 62.55C40.1812 61.7813 41.2312 61.575 42.2062 61.9875C43.1999 62.4 43.7999 63.2812 43.7999 64.3687C43.7999 65.7187 44.9062 66.825 46.2562 66.825H49.7624C51.1312 66.825 52.2374 65.7187 52.2374 64.3687C52.2374 63.3 52.8374 62.4 53.8312 61.9875C54.8249 61.575 55.8749 61.7813 56.6249 62.55C57.5812 63.5063 59.1562 63.5063 60.1124 62.55L62.5874 60.075C63.0562 59.6062 63.2999 58.9875 63.2999 58.3313C63.2999 57.675 63.0374 57.0562 62.5874 56.5875C61.8374 55.8187 61.6312 54.7875 62.0249 53.7937C62.4374 52.8 63.3187 52.2 64.3874 52.2C65.7374 52.2 66.8437 51.0937 66.8437 49.7437V46.2375C66.8624 44.8875 65.7562 43.7812 64.3874 43.7812Z" fill="#1E2875"/>
</svg>
