<svg width="96" height="96" viewBox="0 0 96 96" fill="none" xmlns="http://www.w3.org/2000/svg">
<path d="M42 46.44V78H87V3H42V38.82" fill="#F4E9CE"/>
<path d="M27 66V93H21L16.5 72L12 93H6V66" fill="#94B6E3"/>
<path d="M13.5 36H19.5C24.465 36 28.5 40.035 28.5 45V66H4.5V45C4.5 40.035 8.535 36 13.5 36Z" fill="#94DBE3"/>
<path d="M28.95 48.105L24.03 44.595C22.59 43.56 20.61 43.725 19.35 44.985C17.73 46.605 18 49.305 19.905 50.565L28.95 56.595L45.33 43.86C46.77 42.735 46.905 40.62 45.615 39.33C44.565 38.28 42.915 38.145 41.715 39L28.95 48.12V48.105Z" fill="#94B6E3"/>
<path d="M16.5 31.5C21.4706 31.5 25.5 27.4706 25.5 22.5C25.5 17.5294 21.4706 13.5 16.5 13.5C11.5294 13.5 7.5 17.5294 7.5 22.5C7.5 27.4706 11.5294 31.5 16.5 31.5Z" fill="#94B6E3"/>
<path d="M16.5 33C22.29 33 27 28.29 27 22.5C27 16.71 22.29 12 16.5 12C10.71 12 6 16.71 6 22.5C6 28.29 10.71 33 16.5 33ZM16.5 15C20.64 15 24 18.36 24 22.5C24 26.64 20.64 30 16.5 30C12.36 30 9 26.64 9 22.5C9 18.36 12.36 15 16.5 15Z" fill="#1E2875"/>
<path d="M28.5 67.5C29.325 67.5 30 66.825 30 66V57.675L40.5 49.515V78.015C40.5 78.84 41.175 79.515 42 79.515H87C87.825 79.515 88.5 78.84 88.5 78.015V3C88.5 2.175 87.825 1.5 87 1.5H42C41.175 1.5 40.5 2.175 40.5 3V38.01L30 45.51V45C30 39.21 25.29 34.5 19.5 34.5H13.5C7.71 34.5 3 39.21 3 45V66C3 66.825 3.675 67.5 4.5 67.5V91.5H1.5V94.5H94.5V91.5H28.5V67.5ZM43.5 4.5H85.5V76.5H43.5V47.175L46.245 45.03C46.245 45.03 46.26 45 46.275 45H73.485V42H47.94C47.94 41.91 47.985 41.835 47.985 41.745C48.06 40.455 47.58 39.18 46.665 38.265C45.795 37.395 44.655 36.96 43.485 36.945V4.5H43.5ZM29.82 49.32L42.585 40.2C43.2 39.765 44.025 39.825 44.55 40.365C44.865 40.68 45.03 41.1 45 41.55C44.97 42 44.76 42.39 44.415 42.66L28.89 54.735L20.745 49.305C20.22 48.945 19.875 48.375 19.815 47.745C19.755 47.115 19.98 46.485 20.43 46.035C20.85 45.615 21.39 45.405 21.93 45.405C22.365 45.405 22.8 45.54 23.175 45.81L28.095 49.32C28.62 49.695 29.31 49.695 29.835 49.32H29.82ZM13.86 91.5L16.5 79.155L19.14 91.5H13.845H13.86ZM25.5 91.5H22.215L17.97 71.685C17.82 70.995 17.205 70.5 16.5 70.5C15.795 70.5 15.18 70.995 15.03 71.685L10.785 91.5H7.5V67.5H25.5V91.5ZM27 64.5H6V45C6 40.86 9.36 37.5 13.5 37.5H19.5C23.595 37.5 26.91 40.785 26.985 44.865L24.9 43.365C22.845 41.895 20.07 42.135 18.3 43.905C17.205 45 16.665 46.5 16.83 48.03C16.995 49.56 17.805 50.94 19.095 51.795L27.03 57.075V64.485L27 64.5Z" fill="#1E2875"/>
<path d="M50.5651 19.5C50.5651 19.5 50.6101 19.5 50.6251 19.5C51.0901 19.485 51.5101 19.245 51.7801 18.87L58.2151 9.87L55.7701 8.13L50.4601 15.57L49.1401 14.025L46.8601 15.975L49.4251 18.975C49.7101 19.305 50.1301 19.5 50.5651 19.5Z" fill="#1E2875"/>
<path d="M57 16.5H63V19.5H57V16.5Z" fill="#1E2875"/>
<path d="M66 16.5H82.5V19.5H66V16.5Z" fill="#1E2875"/>
<path d="M76.5 22.5H82.5V25.5H76.5V22.5Z" fill="#1E2875"/>
<path d="M46.5 22.5H73.5V25.5H46.5V22.5Z" fill="#1E2875"/>
<path d="M50.5651 60C50.5651 60 50.6101 60 50.6251 60C51.0901 59.985 51.5101 59.745 51.7801 59.37L58.2151 50.37L55.7701 48.63L50.4601 56.07L49.1401 54.525L46.8601 56.475L49.4251 59.475C49.7101 59.805 50.1301 60 50.5651 60Z" fill="#1E2875"/>
<path d="M57 57H63V60H57V57Z" fill="#1E2875"/>
<path d="M66 57H82.5V60H66V57Z" fill="#1E2875"/>
<path d="M76.5 63H82.5V66H76.5V63Z" fill="#1E2875"/>
<path d="M46.5 63H73.5V66H46.5V63Z" fill="#1E2875"/>
<path d="M57 36H63V39H57V36Z" fill="#1E2875"/>
<path d="M66 36H82.5V39H66V36Z" fill="#1E2875"/>
<path d="M76.5 42H82.5V45H76.5V42Z" fill="#1E2875"/>
<path d="M53.1149 28.575L50.9999 30.69L48.8849 28.575L46.7549 30.69L48.8849 32.82L46.7549 34.935L48.8849 37.065L50.9999 34.935L53.1149 37.065L55.2449 34.935L53.1149 32.82L55.2449 30.69L53.1149 28.575Z" fill="#1E2875"/>
</svg>
