<svg width="96" height="96" viewBox="0 0 96 96" fill="none" xmlns="http://www.w3.org/2000/svg">
<path fill-rule="evenodd" clip-rule="evenodd" d="M8.06273 51.2691L19.7091 44.5217C21.8948 43.2553 24.1174 42.3574 26.5199 43.1368C29.1985 44.0055 33.5723 45.8706 38.0329 46.6751C39.6887 47.2119 40.7207 48.8698 40.2704 50.5508C39.82 52.2321 38.3993 53.0989 36.3947 52.7888L37.954 53.0383C39.7409 53.3241 41.3819 53.0796 42.9456 52.1689L54.1429 45.6469C62.847 40.5776 64.1254 48.3763 61.2314 50.1581L40.9109 62.6707C39.042 63.8212 36.997 64.0898 34.8769 63.5216L20.1379 59.5723L14.6794 62.7236C13.63 63.3294 12.2798 62.9677 11.6738 61.9183L7.26005 54.273C6.6548 53.2245 7.01517 51.876 8.06273 51.2691Z" fill="#F4E9CE"/>
<path fill-rule="evenodd" clip-rule="evenodd" d="M8.06273 51.2691L19.7091 44.5217C21.8948 43.2553 24.1174 42.3574 26.5199 43.1368C27.9529 43.6016 29.8712 44.3514 32.0286 45.0716L9.46786 58.0971L7.26005 54.273C6.6548 53.2245 7.01517 51.876 8.06273 51.2691Z" fill="#F4E9CE"/>
<path fill-rule="evenodd" clip-rule="evenodd" d="M9.22386 47.5941L18.4603 63.9145C18.9069 64.7037 18.6266 65.7146 17.8376 66.1613L14.6959 67.9393C13.9067 68.386 12.8957 68.1056 12.449 67.3166L3.21261 50.9963C2.76599 50.2071 3.0463 49.1961 3.8353 48.7495L6.97705 46.9714C7.76624 46.5248 8.77724 46.8051 9.22386 47.5941Z" fill="#94B6E3"/>
<path fill-rule="evenodd" clip-rule="evenodd" d="M14.0819 58.8071L15.7167 61.6958L17.3333 64.5523C17.779 65.3398 17.501 66.3484 16.7155 66.7963L17.8379 66.1613C18.6271 65.7146 18.9072 64.7036 18.4606 63.9145L16.8385 61.0483L13.5815 55.2932L10.3206 49.5317L9.22414 47.5941C8.83733 46.9105 8.02677 46.609 7.30396 46.8308L9.20239 50.1853L12.4595 55.9405L14.0815 58.8066L14.0819 58.8071Z" fill="#B1B1B5"/>
<path fill-rule="evenodd" clip-rule="evenodd" d="M87.9372 76.1182L76.2909 69.3709C74.1052 68.1045 71.8825 67.2066 69.4801 67.986C66.8015 68.8547 62.4277 70.7199 57.967 71.5243C56.3112 72.0611 55.2792 73.719 55.7296 75.3999C56.18 77.0812 57.6007 77.9481 59.6052 77.6379L58.046 77.8875C56.2591 78.1732 54.6183 77.9287 53.0544 77.0181L41.857 70.4961C33.1529 65.4268 31.8745 73.2255 34.7686 75.0073L55.0891 87.5197C56.9579 88.6702 59.003 88.9387 61.123 88.3706L75.862 84.4213L81.3205 87.5726C82.37 88.1784 83.7202 87.8167 84.3262 86.7673L88.7401 79.1222C89.3452 78.0737 88.9848 76.7252 87.9372 76.1182Z" fill="#F4E9CE"/>
<path fill-rule="evenodd" clip-rule="evenodd" d="M87.9373 76.1182L76.2909 69.3709C74.1053 68.1045 71.8826 67.2066 69.4802 67.986C68.0471 68.4508 66.1288 69.2006 63.9714 69.9208L86.5322 82.9463L88.74 79.1224C89.3452 78.0737 88.9849 76.7252 87.9373 76.1182Z" fill="#F4E9CE"/>
<path fill-rule="evenodd" clip-rule="evenodd" d="M86.776 72.4433L77.5395 88.7636C77.0929 89.5528 77.3732 90.5638 78.1622 91.0105L81.304 92.7885C82.0931 93.2351 83.1041 92.9548 83.5508 92.1658L92.7872 75.8455C93.2338 75.0563 92.9535 74.0453 92.1645 73.5986L89.0228 71.8206C88.2338 71.374 87.2228 71.6543 86.776 72.4433Z" fill="#94B6E3"/>
<path fill-rule="evenodd" clip-rule="evenodd" d="M81.9181 83.6563L80.2832 86.545L78.6666 89.4013C78.2209 90.1888 78.4992 91.1974 79.2846 91.6453L78.1622 91.0103C77.3731 90.5636 77.0929 89.5526 77.5396 88.7635L79.1616 85.8973L82.4187 80.1422L85.6795 74.3807L86.776 72.4431C87.1628 71.7595 87.9734 71.458 88.6962 71.6798L86.7977 75.0343L83.5407 80.7895L81.9186 83.6556L81.9181 83.6563Z" fill="#B1B1B5"/>
<path fill-rule="evenodd" clip-rule="evenodd" d="M83.3679 36.9655C85.2553 44.0093 84.0605 51.1525 80.6111 56.9644L82.6483 57.8142C80.3096 60.1384 75.0316 63.3359 70.9136 62.7897C72.3178 60.6723 73.0996 57.2181 73.4023 53.9573L75.7749 54.9471C79.5924 48.817 80.5273 40.6675 78.6084 33.5065C77.3983 28.9902 75.2182 25.0405 72.4207 21.8956C77.6199 25.2713 81.6371 30.5065 83.3679 36.9655Z" fill="#94DBE3"/>
<path fill-rule="evenodd" clip-rule="evenodd" d="M83.3679 36.9655C85.2491 43.986 84.0345 51.163 80.6111 56.9644L79.3925 56.4561C82.842 50.6441 84.0703 43.4434 82.1831 36.3996C80.6574 30.7054 77.3542 25.9626 73.0312 22.6061C72.8313 22.365 72.6279 22.1278 72.4211 21.8953C77.6199 25.2713 81.6373 30.5065 83.3679 36.9655ZM81.4121 57.2987L82.6483 57.8143C80.3096 60.1386 75.0316 63.336 70.9136 62.7898C71.0236 62.6237 71.13 62.4495 71.2325 62.2676C75.0236 62.0271 79.3303 59.3421 81.4121 57.2987Z" fill="#94DBE3"/>
<path fill-rule="evenodd" clip-rule="evenodd" d="M74.6512 56.1049L75.1966 56.3325C75.8752 56.6158 76.6597 56.3651 77.047 55.7413C81.0189 49.3641 82.1439 40.9071 80.057 33.1189C79.937 32.6724 79.8099 32.2303 79.6705 31.7908C80.6367 33.531 81.3939 35.3981 81.9189 37.3545C83.6414 43.7829 82.7191 50.4752 79.322 56.2003C79.0987 56.5734 79.0501 57.0253 79.187 57.4374C79.2972 57.7693 79.5187 58.0498 79.8099 58.2343C77.9851 59.5438 75.5797 60.7774 73.378 61.1983C74.0229 59.5084 74.4147 57.6624 74.6512 56.1049ZM70.7155 64.2778C71.1039 64.329 71.4955 64.3538 71.891 64.3538C76.4609 64.3528 81.4572 61.1143 83.7055 58.8793C84.062 58.5255 84.2174 58.0181 84.1194 57.5265C84.0241 57.0351 83.6887 56.6239 83.2255 56.4315L82.7339 56.226C85.856 50.1488 86.6007 43.2369 84.8174 36.5783C83.0553 30.0043 78.9432 24.3437 73.2376 20.6383C72.6076 20.2297 71.7729 20.3497 71.2839 20.919C70.7941 21.489 70.802 22.3326 71.3007 22.8937C74.0264 25.9584 76.0516 29.7624 77.1599 33.8957C78.8904 40.3522 78.1068 47.5687 75.1392 53.0582L73.9797 52.5746C73.5393 52.3901 73.0381 52.4272 72.6295 52.6734C72.221 52.9187 71.9527 53.3449 71.9077 53.8196C71.5822 57.3343 70.7641 60.3019 69.6637 61.9616C69.377 62.3931 69.3337 62.9411 69.5472 63.4114C69.761 63.8826 70.2039 64.2099 70.7155 64.2778ZM89.8402 76.1587C89.7521 76.7721 89.1819 77.1956 88.5695 77.1064C87.9562 77.0164 87.5326 76.4471 87.62 75.834C87.71 75.2207 88.2809 74.7971 88.8933 74.8862C89.5066 74.9762 89.9302 75.5454 89.8402 76.1587ZM91.4806 75.1033C91.5054 75.0609 91.5018 75.0186 91.4939 74.9904C91.4868 74.9631 91.4682 74.9242 91.4251 74.9014L88.2847 73.1224C88.2618 73.11 88.238 73.1047 88.2149 73.1047C88.1611 73.1047 88.1082 73.1321 88.0799 73.179L78.8437 89.5009C78.8039 89.568 78.8322 89.6649 78.9001 89.7039L82.0424 91.482C82.0839 91.5058 82.1272 91.5015 82.1553 91.4934C82.181 91.4856 82.2205 91.4679 82.2453 91.4256L91.4806 75.1033ZM76.6164 83.1279C76.2714 82.9294 75.8619 82.8746 75.478 82.9779L60.7364 86.9276C59.0007 87.3926 57.3655 87.1642 55.8787 86.2481L35.555 73.7346C34.9259 73.3463 34.6178 72.0032 35.1545 71.1077C35.9142 69.8379 38.1935 70.1017 41.1037 71.796L52.3015 78.3187C54.1255 79.3804 56.0836 79.7254 58.2895 79.3723L59.6793 79.1464C59.689 79.1447 59.6979 79.1421 59.7093 79.1402C59.719 79.1385 59.7278 79.1376 59.7393 79.1359C61.4962 78.7759 63.1197 78.3126 64.8397 77.8219C65.6154 77.5995 66.4182 77.37 67.2354 77.1521C68.0358 76.9369 68.5105 76.1143 68.297 75.3148C68.0817 74.5146 67.2601 74.0398 66.4589 74.2541C65.6197 74.4791 64.8035 74.7122 64.0147 74.937C62.3752 75.4048 60.8247 75.8467 59.2055 76.1812C57.5457 76.3648 57.2722 75.3518 57.1822 75.0156C56.9553 74.1729 57.4557 73.3134 58.3495 72.9834C61.7345 72.3596 64.9782 71.1877 67.5901 70.2435C68.4937 69.9161 69.2737 69.6337 69.947 69.4159C71.5072 68.9102 73.1281 69.2737 75.5431 70.6725L83.4575 75.2548L78.4145 84.1663L76.6164 83.1279ZM94.3856 74.1891C94.1606 73.3781 93.6337 72.7031 92.9022 72.2901L89.7618 70.5112C88.2511 69.6562 86.3247 70.1901 85.4697 71.7007L84.9359 72.6441L77.047 68.0767C74.7942 66.7716 72.079 65.5716 69.0205 66.5625C68.3005 66.7963 67.4605 67.1008 66.5701 67.4227C64.0349 68.3387 60.8795 69.4789 57.7027 70.0522C57.6374 70.0637 57.5722 70.0806 57.5077 70.1008C55.0572 70.8951 53.6418 73.3948 54.2834 75.7924C54.302 75.8638 54.3222 75.9345 54.3451 76.0033C54.1651 75.9212 53.9868 75.8286 53.8104 75.7262L42.6125 69.2034C35.8612 65.2714 33.2262 68.4877 32.5795 69.567C31.2374 71.8065 31.9072 75.0114 33.9826 76.2893L54.3054 88.8028C55.7701 89.7047 57.3708 90.1609 59.0272 90.1609C59.846 90.1609 60.6781 90.0497 61.5147 89.8256L75.6545 86.0366L76.9366 86.7769L76.2316 88.0237C75.3766 89.5344 75.9114 91.4589 77.422 92.3141L80.5625 94.0931C81.0408 94.3631 81.5703 94.5007 82.1058 94.5007C82.3889 94.5007 82.6741 94.4629 82.9555 94.3851C83.7674 94.1601 84.4424 93.6332 84.8546 92.9034L94.0934 76.5816C94.5056 75.8507 94.6106 75.0019 94.3856 74.1891ZM8.37928 50.9852C8.46741 51.5976 8.04403 52.1676 7.43072 52.2576C6.81741 52.3466 6.24741 51.9223 6.15909 51.309C6.06909 50.6966 6.49266 50.1266 7.10597 50.0374C7.71928 49.9476 8.28947 50.3719 8.37928 50.9852ZM19.3838 58.2784L17.5855 59.3169L12.5418 50.4054L20.4562 45.8241C22.8713 44.4246 24.4932 44.061 26.0532 44.5667C26.7256 44.7855 27.5058 45.0679 28.412 45.3943C31.0212 46.3386 34.2659 47.5112 37.6499 48.1343C38.5439 48.4652 39.0451 49.3237 38.8182 50.1664C38.7299 50.5026 38.4564 51.5166 36.7947 51.3321C35.1729 50.9976 33.6243 50.5556 31.9838 50.0878C31.1958 49.8628 30.3805 49.6298 29.5405 49.4048C28.742 49.1912 27.9187 49.665 27.7034 50.4654C27.4889 51.2659 27.9637 52.0882 28.7641 52.3026C29.5794 52.5204 30.3824 52.7509 31.1607 52.9723C32.8797 53.463 34.5042 53.9271 36.2611 54.2861C36.2716 54.2887 36.2813 54.2888 36.2911 54.2904C36.3016 54.2921 36.3114 54.2949 36.3211 54.2966L37.7135 54.5235C39.9168 54.8764 41.8741 54.5314 43.6989 53.469L54.8958 46.947C57.806 45.2528 60.0862 44.988 60.8459 46.2587C61.3816 47.1544 61.0745 48.4974 60.4445 48.8846L40.1234 61.3982C38.6339 62.3151 36.9997 62.5436 35.2614 62.0777L20.5223 58.128C20.1374 58.026 19.729 58.0798 19.3838 58.2784ZM17.1003 64.8542C17.1674 64.8163 17.1955 64.7192 17.1558 64.6511L7.91953 48.3291C7.89122 48.2822 7.83928 48.2548 7.78453 48.2548C7.76241 48.2548 7.73785 48.261 7.71572 48.2724L4.57434 50.0514C4.53197 50.0753 4.51266 50.1131 4.50553 50.1414C4.49841 50.1697 4.49409 50.2119 4.51866 50.2536L13.7549 66.5764C13.7797 66.6188 13.8185 66.6364 13.8468 66.6443C13.8732 66.6521 13.9165 66.6566 13.957 66.6328L17.1003 64.8542ZM34.4847 64.9759L20.3459 61.1869L19.0638 61.9281L19.768 63.174C20.623 64.6847 20.0892 66.6101 18.5776 67.4651L15.4372 69.2432C14.9588 69.5141 14.4303 69.6518 13.8938 69.6518C13.6105 69.6518 13.3255 69.6129 13.0441 69.5353C12.2322 69.3103 11.5582 68.7844 11.1451 68.0537L1.90678 51.7318C1.49391 51.0021 1.38966 50.1523 1.61391 49.3404C1.83891 48.5286 2.36653 47.8536 3.09722 47.4407L6.23859 45.6626C7.74928 44.8076 9.67472 45.3405 10.5297 46.8521L11.0645 47.7954L18.9524 43.2272C21.2062 41.922 23.9214 40.722 26.9799 41.7139C27.6989 41.9477 28.5417 42.2513 29.432 42.5734C31.9653 43.4903 35.1209 44.6303 38.2968 45.2029C38.363 45.2143 38.4282 45.2312 38.4918 45.2524C40.9422 46.0466 42.3577 48.5464 41.717 50.943C41.6984 51.0144 41.6772 51.0851 41.6553 51.1549C41.8353 51.0727 42.0136 50.9801 42.1891 50.8777L53.387 44.355C60.1392 40.422 62.7732 43.6384 63.4201 44.7176C64.763 46.9581 64.0934 50.1621 62.018 51.4399L41.6943 63.9534C40.2322 64.8553 38.6289 65.3115 36.9734 65.3115C36.1533 65.3111 35.3212 65.1999 34.4847 64.9759Z" fill="#1E2875"/>
<mask id="path-12-outside-1_2001_2105" maskUnits="userSpaceOnUse" x="22" y="2.28571" width="43" height="40" fill="black">
<rect fill="white" x="22" y="2.28571" width="43" height="40"/>
<path d="M52.6577 22.7254C51.3374 23.0188 50.0714 23.5178 48.9059 24.2039C47.7735 24.873 46.7116 25.6547 45.7363 26.5372C49.9132 27.7384 57.9528 25.4187 56.3818 17.0285C53.8498 18.4841 45.5336 17.4074 44.6504 24.4719C45.6185 23.6333 46.6609 22.8846 47.7647 22.2349C49.1365 21.4271 50.6272 20.8408 52.1818 20.4977C52.328 20.4665 52.479 20.4643 52.626 20.4914C52.7731 20.5185 52.9133 20.5743 53.0388 20.6556C53.1643 20.7369 53.2726 20.8421 53.3574 20.9652C53.4422 21.0883 53.502 21.227 53.5332 21.3732C53.5645 21.5194 53.5666 21.6704 53.5395 21.8174C53.5124 21.9645 53.4567 22.1047 53.3754 22.2302C53.2941 22.3557 53.1888 22.464 53.0657 22.5488C52.9426 22.6336 52.8039 22.6941 52.6577 22.7254ZM26.4251 13.2721L26.4066 13.3045C24.7812 16.1225 23.9503 19.3286 24.0023 22.5813C24.0543 25.8341 24.9873 29.0119 26.702 31.7766C28.4167 34.5412 30.8488 36.7893 33.7397 38.2814C36.6305 39.7736 39.8719 40.4541 43.1188 40.2504C43.4202 40.2314 43.7018 40.0934 43.9015 39.8668C44.1013 39.6402 44.2028 39.3436 44.1838 39.0421C44.1648 38.7406 44.0268 38.4591 43.8002 38.2593C43.5736 38.0596 43.277 37.9581 42.9755 37.9771C39.7733 38.1751 36.5871 37.389 33.8445 35.7242C31.1019 34.0594 28.9342 31.5955 27.6322 28.6633C26.3303 25.731 25.9564 22.4707 26.5607 19.3198C27.1651 16.169 28.7187 13.2784 31.0132 11.0359C31.5056 10.5557 32.0288 10.1081 32.5795 9.69613L32.3855 10.3703C32.3016 10.6595 32.3359 10.9702 32.4811 11.234C32.6262 11.4979 32.8702 11.6932 33.1594 11.7772C33.4486 11.8611 33.7593 11.8267 34.0232 11.6816C34.287 11.5364 34.4824 11.2924 34.5663 11.0033L35.569 7.56116L35.5966 7.46417C35.6331 7.31913 35.6405 7.16829 35.6183 7.02038C35.5962 6.87246 35.545 6.73039 35.4677 6.60237C35.3904 6.47435 35.2884 6.36291 35.1678 6.27449C35.0472 6.18606 34.9102 6.1224 34.7649 6.08718L31.2302 5.21888C30.9373 5.14657 30.6277 5.19356 30.3695 5.34951C30.1113 5.50547 29.9256 5.75762 29.8532 6.05048C29.7809 6.34335 29.8279 6.65295 29.9839 6.91117C30.1398 7.16939 30.392 7.35509 30.6849 7.4274L31.5397 7.64007C30.7903 8.17162 30.0842 8.76179 29.4281 9.40501C28.2553 10.5509 27.2449 11.8521 26.4251 13.2721ZM43.4354 26.1629V32.0539C43.4354 32.3566 43.5556 32.647 43.7697 32.861C43.9838 33.0751 44.2741 33.1954 44.5769 33.1954C44.8796 33.1954 45.17 33.0751 45.384 32.861C45.5981 32.647 45.7184 32.3566 45.7184 32.0539V26.1629C45.7184 25.8601 45.5981 25.5698 45.384 25.3557C45.17 25.1416 44.8796 25.0214 44.5769 25.0214C44.2741 25.0214 43.9838 25.1416 43.7697 25.3557C43.5556 25.5698 43.4354 25.8601 43.4354 26.1629ZM32.7621 17.0285C31.1957 25.419 39.226 27.7386 43.4075 26.5372C42.4252 25.6491 41.3555 24.8627 40.2149 24.19C39.0573 23.5117 37.8012 23.0175 36.4916 22.7254C36.345 22.6948 36.2059 22.6356 36.0823 22.5511C35.9586 22.4667 35.8528 22.3587 35.771 22.2333C35.6891 22.1079 35.6328 21.9676 35.6053 21.8204C35.5778 21.6733 35.5796 21.5221 35.6106 21.3756C35.6416 21.2291 35.7012 21.0902 35.786 20.9668C35.8708 20.8433 35.9791 20.7379 36.1047 20.6564C36.2304 20.5749 36.3708 20.519 36.5181 20.4919C36.6654 20.4648 36.8165 20.467 36.9629 20.4985C38.505 20.8398 39.9844 21.4197 41.3477 22.2171C42.4627 22.8702 43.5159 23.6233 44.4943 24.4673C43.6062 17.4074 35.2942 18.4839 32.7621 17.0285ZM54.4296 6.70144H54.425C52.9004 5.81989 51.2551 5.16612 49.5413 4.76091C47.829 4.35789 46.0665 4.20997 44.3109 4.32193C44.0094 4.34093 43.7279 4.4789 43.5281 4.7055C43.3284 4.9321 43.2268 5.22876 43.2458 5.53022C43.2648 5.83169 43.4028 6.11326 43.6294 6.31299C43.856 6.51272 44.1527 6.61426 44.4542 6.59526C47.2907 6.4199 50.1217 7.01655 52.6462 8.32176C55.1707 9.62698 57.2942 11.592 58.791 14.0077C60.2878 16.4235 61.1019 19.1998 61.1467 22.0414C61.1915 24.8829 60.4653 27.6835 59.0454 30.1452C59.033 30.1643 59.0221 30.1844 59.0131 30.2053C58.2967 31.435 57.4171 32.562 56.3981 33.5554C55.9117 34.0293 55.3948 34.4707 54.8505 34.8768L55.0445 34.2026C55.086 34.0595 55.099 33.9095 55.0826 33.7613C55.0662 33.6131 55.0208 33.4696 54.9489 33.3389C54.877 33.2083 54.7801 33.0931 54.6637 32.9999C54.5473 32.9067 54.4137 32.8373 54.2705 32.7958C54.1274 32.7542 53.9774 32.7413 53.8292 32.7577C53.681 32.7741 53.5375 32.8195 53.4068 32.8914C53.2762 32.9632 53.161 33.0601 53.0678 33.1765C52.9746 33.2929 52.9052 33.4265 52.8637 33.5697L51.8607 37.0121C51.8515 37.0445 51.8422 37.0768 51.8329 37.1091C51.7966 37.2541 51.7894 37.4049 51.8116 37.5527C51.8338 37.7006 51.885 37.8426 51.9623 37.9705C52.0396 38.0985 52.1415 38.2099 52.262 38.2984C52.3825 38.3868 52.5194 38.4506 52.6646 38.4859L56.1993 39.3547C56.4922 39.427 56.8018 39.38 57.06 39.224C57.3182 39.068 57.5039 38.8159 57.5762 38.523C57.6485 38.2301 57.6015 37.9205 57.4455 37.6623C57.2895 37.4041 57.0374 37.2185 56.7445 37.1462L55.8898 36.9335C56.6321 36.4069 57.3319 35.8228 57.9828 35.1868C59.1514 34.0496 60.1587 32.7577 60.9768 31.3472C60.9907 31.3283 61.0031 31.3082 61.0137 31.2872C62.1966 29.2408 62.9646 26.9814 63.2739 24.6381C63.5832 22.2948 63.4276 19.9135 62.8162 17.6303C62.2047 15.3471 61.1493 13.2068 59.7103 11.3317C58.2713 9.45656 56.4769 7.88277 54.4296 6.70144Z"/>
</mask>
<path d="M52.6577 22.7254C51.3374 23.0188 50.0714 23.5178 48.9059 24.2039C47.7735 24.873 46.7116 25.6547 45.7363 26.5372C49.9132 27.7384 57.9528 25.4187 56.3818 17.0285C53.8498 18.4841 45.5336 17.4074 44.6504 24.4719C45.6185 23.6333 46.6609 22.8846 47.7647 22.2349C49.1365 21.4271 50.6272 20.8408 52.1818 20.4977C52.328 20.4665 52.479 20.4643 52.626 20.4914C52.7731 20.5185 52.9133 20.5743 53.0388 20.6556C53.1643 20.7369 53.2726 20.8421 53.3574 20.9652C53.4422 21.0883 53.502 21.227 53.5332 21.3732C53.5645 21.5194 53.5666 21.6704 53.5395 21.8174C53.5124 21.9645 53.4567 22.1047 53.3754 22.2302C53.2941 22.3557 53.1888 22.464 53.0657 22.5488C52.9426 22.6336 52.8039 22.6941 52.6577 22.7254ZM26.4251 13.2721L26.4066 13.3045C24.7812 16.1225 23.9503 19.3286 24.0023 22.5813C24.0543 25.8341 24.9873 29.0119 26.702 31.7766C28.4167 34.5412 30.8488 36.7893 33.7397 38.2814C36.6305 39.7736 39.8719 40.4541 43.1188 40.2504C43.4202 40.2314 43.7018 40.0934 43.9015 39.8668C44.1013 39.6402 44.2028 39.3436 44.1838 39.0421C44.1648 38.7406 44.0268 38.4591 43.8002 38.2593C43.5736 38.0596 43.277 37.9581 42.9755 37.9771C39.7733 38.1751 36.5871 37.389 33.8445 35.7242C31.1019 34.0594 28.9342 31.5955 27.6322 28.6633C26.3303 25.731 25.9564 22.4707 26.5607 19.3198C27.1651 16.169 28.7187 13.2784 31.0132 11.0359C31.5056 10.5557 32.0288 10.1081 32.5795 9.69613L32.3855 10.3703C32.3016 10.6595 32.3359 10.9702 32.4811 11.234C32.6262 11.4979 32.8702 11.6932 33.1594 11.7772C33.4486 11.8611 33.7593 11.8267 34.0232 11.6816C34.287 11.5364 34.4824 11.2924 34.5663 11.0033L35.569 7.56116L35.5966 7.46417C35.6331 7.31913 35.6405 7.16829 35.6183 7.02038C35.5962 6.87246 35.545 6.73039 35.4677 6.60237C35.3904 6.47435 35.2884 6.36291 35.1678 6.27449C35.0472 6.18606 34.9102 6.1224 34.7649 6.08718L31.2302 5.21888C30.9373 5.14657 30.6277 5.19356 30.3695 5.34951C30.1113 5.50547 29.9256 5.75762 29.8532 6.05048C29.7809 6.34335 29.8279 6.65295 29.9839 6.91117C30.1398 7.16939 30.392 7.35509 30.6849 7.4274L31.5397 7.64007C30.7903 8.17162 30.0842 8.76179 29.4281 9.40501C28.2553 10.5509 27.2449 11.8521 26.4251 13.2721ZM43.4354 26.1629V32.0539C43.4354 32.3566 43.5556 32.647 43.7697 32.861C43.9838 33.0751 44.2741 33.1954 44.5769 33.1954C44.8796 33.1954 45.17 33.0751 45.384 32.861C45.5981 32.647 45.7184 32.3566 45.7184 32.0539V26.1629C45.7184 25.8601 45.5981 25.5698 45.384 25.3557C45.17 25.1416 44.8796 25.0214 44.5769 25.0214C44.2741 25.0214 43.9838 25.1416 43.7697 25.3557C43.5556 25.5698 43.4354 25.8601 43.4354 26.1629ZM32.7621 17.0285C31.1957 25.419 39.226 27.7386 43.4075 26.5372C42.4252 25.6491 41.3555 24.8627 40.2149 24.19C39.0573 23.5117 37.8012 23.0175 36.4916 22.7254C36.345 22.6948 36.2059 22.6356 36.0823 22.5511C35.9586 22.4667 35.8528 22.3587 35.771 22.2333C35.6891 22.1079 35.6328 21.9676 35.6053 21.8204C35.5778 21.6733 35.5796 21.5221 35.6106 21.3756C35.6416 21.2291 35.7012 21.0902 35.786 20.9668C35.8708 20.8433 35.9791 20.7379 36.1047 20.6564C36.2304 20.5749 36.3708 20.519 36.5181 20.4919C36.6654 20.4648 36.8165 20.467 36.9629 20.4985C38.505 20.8398 39.9844 21.4197 41.3477 22.2171C42.4627 22.8702 43.5159 23.6233 44.4943 24.4673C43.6062 17.4074 35.2942 18.4839 32.7621 17.0285ZM54.4296 6.70144H54.425C52.9004 5.81989 51.2551 5.16612 49.5413 4.76091C47.829 4.35789 46.0665 4.20997 44.3109 4.32193C44.0094 4.34093 43.7279 4.4789 43.5281 4.7055C43.3284 4.9321 43.2268 5.22876 43.2458 5.53022C43.2648 5.83169 43.4028 6.11326 43.6294 6.31299C43.856 6.51272 44.1527 6.61426 44.4542 6.59526C47.2907 6.4199 50.1217 7.01655 52.6462 8.32176C55.1707 9.62698 57.2942 11.592 58.791 14.0077C60.2878 16.4235 61.1019 19.1998 61.1467 22.0414C61.1915 24.8829 60.4653 27.6835 59.0454 30.1452C59.033 30.1643 59.0221 30.1844 59.0131 30.2053C58.2967 31.435 57.4171 32.562 56.3981 33.5554C55.9117 34.0293 55.3948 34.4707 54.8505 34.8768L55.0445 34.2026C55.086 34.0595 55.099 33.9095 55.0826 33.7613C55.0662 33.6131 55.0208 33.4696 54.9489 33.3389C54.877 33.2083 54.7801 33.0931 54.6637 32.9999C54.5473 32.9067 54.4137 32.8373 54.2705 32.7958C54.1274 32.7542 53.9774 32.7413 53.8292 32.7577C53.681 32.7741 53.5375 32.8195 53.4068 32.8914C53.2762 32.9632 53.161 33.0601 53.0678 33.1765C52.9746 33.2929 52.9052 33.4265 52.8637 33.5697L51.8607 37.0121C51.8515 37.0445 51.8422 37.0768 51.8329 37.1091C51.7966 37.2541 51.7894 37.4049 51.8116 37.5527C51.8338 37.7006 51.885 37.8426 51.9623 37.9705C52.0396 38.0985 52.1415 38.2099 52.262 38.2984C52.3825 38.3868 52.5194 38.4506 52.6646 38.4859L56.1993 39.3547C56.4922 39.427 56.8018 39.38 57.06 39.224C57.3182 39.068 57.5039 38.8159 57.5762 38.523C57.6485 38.2301 57.6015 37.9205 57.4455 37.6623C57.2895 37.4041 57.0374 37.2185 56.7445 37.1462L55.8898 36.9335C56.6321 36.4069 57.3319 35.8228 57.9828 35.1868C59.1514 34.0496 60.1587 32.7577 60.9768 31.3472C60.9907 31.3283 61.0031 31.3082 61.0137 31.2872C62.1966 29.2408 62.9646 26.9814 63.2739 24.6381C63.5832 22.2948 63.4276 19.9135 62.8162 17.6303C62.2047 15.3471 61.1493 13.2068 59.7103 11.3317C58.2713 9.45656 56.4769 7.88277 54.4296 6.70144Z" fill="#F4E9CE"/>
<path d="M52.6577 22.7254C51.3374 23.0188 50.0714 23.5178 48.9059 24.2039C47.7735 24.873 46.7116 25.6547 45.7363 26.5372C49.9132 27.7384 57.9528 25.4187 56.3818 17.0285C53.8498 18.4841 45.5336 17.4074 44.6504 24.4719C45.6185 23.6333 46.6609 22.8846 47.7647 22.2349C49.1365 21.4271 50.6272 20.8408 52.1818 20.4977C52.328 20.4665 52.479 20.4643 52.626 20.4914C52.7731 20.5185 52.9133 20.5743 53.0388 20.6556C53.1643 20.7369 53.2726 20.8421 53.3574 20.9652C53.4422 21.0883 53.502 21.227 53.5332 21.3732C53.5645 21.5194 53.5666 21.6704 53.5395 21.8174C53.5124 21.9645 53.4567 22.1047 53.3754 22.2302C53.2941 22.3557 53.1888 22.464 53.0657 22.5488C52.9426 22.6336 52.8039 22.6941 52.6577 22.7254ZM26.4251 13.2721L26.4066 13.3045C24.7812 16.1225 23.9503 19.3286 24.0023 22.5813C24.0543 25.8341 24.9873 29.0119 26.702 31.7766C28.4167 34.5412 30.8488 36.7893 33.7397 38.2814C36.6305 39.7736 39.8719 40.4541 43.1188 40.2504C43.4202 40.2314 43.7018 40.0934 43.9015 39.8668C44.1013 39.6402 44.2028 39.3436 44.1838 39.0421C44.1648 38.7406 44.0268 38.4591 43.8002 38.2593C43.5736 38.0596 43.277 37.9581 42.9755 37.9771C39.7733 38.1751 36.5871 37.389 33.8445 35.7242C31.1019 34.0594 28.9342 31.5955 27.6322 28.6633C26.3303 25.731 25.9564 22.4707 26.5607 19.3198C27.1651 16.169 28.7187 13.2784 31.0132 11.0359C31.5056 10.5557 32.0288 10.1081 32.5795 9.69613L32.3855 10.3703C32.3016 10.6595 32.3359 10.9702 32.4811 11.234C32.6262 11.4979 32.8702 11.6932 33.1594 11.7772C33.4486 11.8611 33.7593 11.8267 34.0232 11.6816C34.287 11.5364 34.4824 11.2924 34.5663 11.0033L35.569 7.56116L35.5966 7.46417C35.6331 7.31913 35.6405 7.16829 35.6183 7.02038C35.5962 6.87246 35.545 6.73039 35.4677 6.60237C35.3904 6.47435 35.2884 6.36291 35.1678 6.27449C35.0472 6.18606 34.9102 6.1224 34.7649 6.08718L31.2302 5.21888C30.9373 5.14657 30.6277 5.19356 30.3695 5.34951C30.1113 5.50547 29.9256 5.75762 29.8532 6.05048C29.7809 6.34335 29.8279 6.65295 29.9839 6.91117C30.1398 7.16939 30.392 7.35509 30.6849 7.4274L31.5397 7.64007C30.7903 8.17162 30.0842 8.76179 29.4281 9.40501C28.2553 10.5509 27.2449 11.8521 26.4251 13.2721ZM43.4354 26.1629V32.0539C43.4354 32.3566 43.5556 32.647 43.7697 32.861C43.9838 33.0751 44.2741 33.1954 44.5769 33.1954C44.8796 33.1954 45.17 33.0751 45.384 32.861C45.5981 32.647 45.7184 32.3566 45.7184 32.0539V26.1629C45.7184 25.8601 45.5981 25.5698 45.384 25.3557C45.17 25.1416 44.8796 25.0214 44.5769 25.0214C44.2741 25.0214 43.9838 25.1416 43.7697 25.3557C43.5556 25.5698 43.4354 25.8601 43.4354 26.1629ZM32.7621 17.0285C31.1957 25.419 39.226 27.7386 43.4075 26.5372C42.4252 25.6491 41.3555 24.8627 40.2149 24.19C39.0573 23.5117 37.8012 23.0175 36.4916 22.7254C36.345 22.6948 36.2059 22.6356 36.0823 22.5511C35.9586 22.4667 35.8528 22.3587 35.771 22.2333C35.6891 22.1079 35.6328 21.9676 35.6053 21.8204C35.5778 21.6733 35.5796 21.5221 35.6106 21.3756C35.6416 21.2291 35.7012 21.0902 35.786 20.9668C35.8708 20.8433 35.9791 20.7379 36.1047 20.6564C36.2304 20.5749 36.3708 20.519 36.5181 20.4919C36.6654 20.4648 36.8165 20.467 36.9629 20.4985C38.505 20.8398 39.9844 21.4197 41.3477 22.2171C42.4627 22.8702 43.5159 23.6233 44.4943 24.4673C43.6062 17.4074 35.2942 18.4839 32.7621 17.0285ZM54.4296 6.70144H54.425C52.9004 5.81989 51.2551 5.16612 49.5413 4.76091C47.829 4.35789 46.0665 4.20997 44.3109 4.32193C44.0094 4.34093 43.7279 4.4789 43.5281 4.7055C43.3284 4.9321 43.2268 5.22876 43.2458 5.53022C43.2648 5.83169 43.4028 6.11326 43.6294 6.31299C43.856 6.51272 44.1527 6.61426 44.4542 6.59526C47.2907 6.4199 50.1217 7.01655 52.6462 8.32176C55.1707 9.62698 57.2942 11.592 58.791 14.0077C60.2878 16.4235 61.1019 19.1998 61.1467 22.0414C61.1915 24.8829 60.4653 27.6835 59.0454 30.1452C59.033 30.1643 59.0221 30.1844 59.0131 30.2053C58.2967 31.435 57.4171 32.562 56.3981 33.5554C55.9117 34.0293 55.3948 34.4707 54.8505 34.8768L55.0445 34.2026C55.086 34.0595 55.099 33.9095 55.0826 33.7613C55.0662 33.6131 55.0208 33.4696 54.9489 33.3389C54.877 33.2083 54.7801 33.0931 54.6637 32.9999C54.5473 32.9067 54.4137 32.8373 54.2705 32.7958C54.1274 32.7542 53.9774 32.7413 53.8292 32.7577C53.681 32.7741 53.5375 32.8195 53.4068 32.8914C53.2762 32.9632 53.161 33.0601 53.0678 33.1765C52.9746 33.2929 52.9052 33.4265 52.8637 33.5697L51.8607 37.0121C51.8515 37.0445 51.8422 37.0768 51.8329 37.1091C51.7966 37.2541 51.7894 37.4049 51.8116 37.5527C51.8338 37.7006 51.885 37.8426 51.9623 37.9705C52.0396 38.0985 52.1415 38.2099 52.262 38.2984C52.3825 38.3868 52.5194 38.4506 52.6646 38.4859L56.1993 39.3547C56.4922 39.427 56.8018 39.38 57.06 39.224C57.3182 39.068 57.5039 38.8159 57.5762 38.523C57.6485 38.2301 57.6015 37.9205 57.4455 37.6623C57.2895 37.4041 57.0374 37.2185 56.7445 37.1462L55.8898 36.9335C56.6321 36.4069 57.3319 35.8228 57.9828 35.1868C59.1514 34.0496 60.1587 32.7577 60.9768 31.3472C60.9907 31.3283 61.0031 31.3082 61.0137 31.2872C62.1966 29.2408 62.9646 26.9814 63.2739 24.6381C63.5832 22.2948 63.4276 19.9135 62.8162 17.6303C62.2047 15.3471 61.1493 13.2068 59.7103 11.3317C58.2713 9.45656 56.4769 7.88277 54.4296 6.70144Z" stroke="#1E2875" stroke-width="3" mask="url(#path-12-outside-1_2001_2105)"/>
</svg>
