<svg width="96" height="96" viewBox="0 0 96 96" fill="none" xmlns="http://www.w3.org/2000/svg">
<g clip-path="url(#clip0_2001_2447)">
<path d="M77.7927 39.3431C77.1518 39.7239 76.4965 40.0897 75.8243 40.4368C75.5565 40.575 75.2359 40.575 74.9682 40.4368C66.5053 36.0664 60.4245 29.0164 59.1471 19.4554C54.2104 17.0807 48.6765 15.75 42.8318 15.75C22.0176 15.75 5.14429 32.6233 5.14429 53.4375C5.14429 58.5154 6.15097 63.3576 7.97179 67.7786L11.9076 63.8428C12.4356 63.3148 13.2915 63.3148 13.8195 63.8428L34.8512 84.8745C35.3792 85.4025 35.3792 86.2584 34.8512 86.7864L32.0734 89.5642C35.4827 90.5781 39.093 91.1252 42.8318 91.1252C46.5705 91.1252 50.1808 90.5781 53.5902 89.5642L50.8123 86.7864C50.2843 86.2584 50.2843 85.4025 50.8123 84.8745L71.8438 63.8428C72.3718 63.3148 73.2278 63.3148 73.7558 63.8428L77.6916 67.7786C79.5124 63.3576 80.5191 58.5154 80.5191 53.4375C80.5193 48.4539 79.5497 43.6974 77.7927 39.3431Z" fill="#94DBE3"/>
<path d="M11.9076 63.8428C12.4356 63.3148 13.2915 63.3148 13.8195 63.8428L14.3689 64.3922C13.3172 60.9253 12.7495 57.2481 12.7495 53.4377C12.7495 33.9071 27.606 17.8468 46.6345 15.9403C45.3838 15.8147 44.1154 15.75 42.8318 15.75C22.0176 15.75 5.14429 32.6233 5.14429 53.4375C5.14429 58.5154 6.15097 63.3576 7.97179 67.7786L11.9076 63.8428Z" fill="#94DBE3"/>
<path d="M70.2904 65.3964L65.9336 61.0397L59.9265 67.0468C57.8235 69.1494 55.0277 70.3078 52.0545 70.3078H52.0543C51.9174 70.3078 51.78 70.3052 51.6426 70.3001L48.9662 70.2013C48.8263 70.196 48.687 70.1934 48.5475 70.1934C46.5 70.1934 44.5363 70.7351 42.8171 71.7478L53.3781 82.3087L70.2904 65.3964Z" fill="#F4E9CE"/>
<path d="M59.2157 76.4709L53.0942 70.3494C52.6131 70.3942 52.1275 70.4119 51.6388 70.3937L48.9625 70.2947C46.8143 70.2152 44.7103 70.7544 42.8875 71.8183L53.3777 82.3085L59.2157 76.4709Z" fill="#F4E9CE"/>
<path d="M58.2238 94.1978L50.8123 86.7863C50.2843 86.2583 50.2843 85.4023 50.8123 84.8743L71.844 63.8427C72.372 63.3147 73.2279 63.3147 73.7559 63.8427L81.1674 71.2542C81.6954 71.7822 81.6954 72.6381 81.1674 73.1661L60.1357 94.1978C59.6077 94.7258 58.7516 94.7258 58.2238 94.1978Z" fill="#94B6E3"/>
<path d="M58.6858 86.7863C58.1578 86.2583 58.1578 85.4023 58.6858 84.8743L76.7366 66.8235L73.7557 63.8427C73.2277 63.3147 72.3718 63.3147 71.8438 63.8427L50.8123 84.8743C50.2843 85.4023 50.2843 86.2583 50.8123 86.7863L58.2238 94.1978C58.7518 94.7258 59.6077 94.7258 60.1357 94.1978L63.1166 91.2169L58.6858 86.7863Z" fill="#94B6E3"/>
<path d="M72.8062 48.7686C71.2342 47.0878 68.5964 47.0546 66.9822 48.6688C68.5638 47.0873 68.5638 44.523 66.9822 42.9415C65.4006 41.3599 62.8364 41.3599 61.2548 42.9415C62.8364 41.3599 62.8362 38.7957 61.2548 37.2141C59.6733 35.6325 57.1092 35.6325 55.5275 37.2139C57.1088 35.6322 57.1088 33.0681 55.5273 31.4865C53.9457 29.905 51.3815 29.905 49.7999 31.4865L15.6316 65.6546L32.0808 82.1038L40.609 73.5756C42.8165 71.3682 45.8433 70.1794 48.9629 70.2947L51.6393 70.3937C54.7589 70.509 57.7857 69.3203 59.9932 67.113L72.6348 54.4714C74.191 52.915 74.3097 50.376 72.8062 48.7686Z" fill="#F4E9CE"/>
<path d="M28.3387 62.6742L56.7112 34.3017C56.699 33.2815 56.3056 32.265 55.5273 31.4865C53.9457 29.905 51.3815 29.905 49.7999 31.4865L15.6316 65.6546L32.0808 82.1038L37.273 76.9116L28.3388 67.9774C26.8741 66.513 26.8741 64.1385 28.3387 62.6742Z" fill="#F4E9CE"/>
<path d="M44.3163 36.9697L44.2985 36.9875H40.9762C38.2346 36.9875 36.0121 34.7651 36.0121 32.0235V31.1036C36.0121 30.5705 36.2006 30.0817 36.5141 29.6994C35.0784 29.1722 33.4051 29.4806 32.2526 30.6332C30.671 32.2147 30.671 34.779 32.2526 36.3605L41.5485 45.6564C43.0955 47.2035 45.6196 47.3503 47.2333 45.873C48.9461 44.3047 48.9903 41.6434 47.3656 40.0189L44.3163 36.9697Z" fill="#F4E9CE"/>
<path d="M45.3564 43.7721L36.0605 34.4762C34.6998 33.1155 34.5131 31.0292 35.4935 29.4652C34.3353 29.3576 33.1395 29.7465 32.2526 30.6334C30.671 32.2149 30.671 34.7792 32.2526 36.3607L41.5485 45.6566C43.0955 47.2037 45.6196 47.3505 47.2333 45.8732C47.5222 45.6086 47.7596 45.3111 47.9536 44.9944C47.0034 44.9023 46.0745 44.4902 45.3564 43.7721Z" fill="#F4E9CE"/>
<path d="M32.2527 36.3609C30.6711 34.7794 28.1068 34.7794 26.5253 36.3609C24.9437 37.9425 24.9437 40.5067 26.5253 42.0883L36.972 52.535C38.5362 54.0992 41.0659 54.119 42.6542 52.5797C44.2782 51.0058 44.2986 48.4069 42.6994 46.8077L32.2527 36.3609Z" fill="#F4E9CE"/>
<path d="M40.8983 50.5639L30.4515 40.1171C29.118 38.7836 28.9135 36.7534 29.8287 35.2007C28.651 35.0728 27.4281 35.4581 26.5253 36.361C24.9437 37.9425 24.9437 40.5068 26.5253 42.0883L36.972 52.5351C38.5362 54.0992 41.0659 54.1191 42.6542 52.5797C42.9218 52.3204 43.1415 52.0313 43.3221 51.7253C42.4362 51.6287 41.5765 51.2421 40.8983 50.5639Z" fill="#F4E9CE"/>
<path d="M26.5253 42.0883C24.9437 40.5068 22.3795 40.5068 20.7977 42.0883C19.2162 43.6699 19.2162 46.2341 20.7977 47.8159L29.3746 56.3927C30.9387 57.9568 33.4682 57.9767 35.0567 56.4373C36.6809 54.8635 36.7011 52.2645 35.1019 50.6653L26.5253 42.0883Z" fill="#F4E9CE"/>
<path d="M33.2108 54.5014L24.6338 45.9244C23.2757 44.5663 23.0873 42.4853 24.0616 40.9223C22.8961 40.8071 21.6904 41.1955 20.7977 42.0881C19.2162 43.6697 19.2162 46.234 20.7977 47.8157L29.3746 56.3925C30.9387 57.9567 33.4682 57.9765 35.0567 56.4371C35.2996 56.2018 35.5022 55.9414 35.6732 55.6669C34.7738 55.578 33.8987 55.1895 33.2108 54.5014Z" fill="#F4E9CE"/>
<path d="M22.5508 49.5686C20.9692 47.9871 18.4049 47.9871 16.8234 49.5686C15.2418 51.1502 15.2418 53.7144 16.8234 55.296L21.3911 59.8637C22.9552 61.4278 25.4848 61.4477 27.0733 59.9083C28.6974 58.3344 28.7176 55.7355 27.1184 54.1363L22.5508 49.5686Z" fill="#F4E9CE"/>
<path d="M25.2533 57.9812L20.6856 53.4135C19.3263 52.0541 19.1388 49.9702 20.1162 48.4069C18.9417 48.2824 17.7235 48.6684 16.8231 49.5686C15.2416 51.1502 15.2416 53.7144 16.8231 55.296L21.3908 59.8637C22.9549 61.4278 25.4845 61.4477 27.073 59.9083C27.3141 59.6745 27.5155 59.4163 27.6859 59.1439C26.797 59.0492 25.9338 58.6618 25.2533 57.9812Z" fill="#F4E9CE"/>
<path d="M45.4595 28.8878H38.228C37.0042 28.8878 36.012 29.8798 36.012 31.1036V32.0235C36.012 34.7651 38.2344 36.9876 40.976 36.9876H44.2983L49.376 31.9101C48.9215 30.1738 47.3433 28.8878 45.4595 28.8878Z" fill="#F4E9CE"/>
<path d="M34.8512 86.7863L27.4397 94.1978C26.9117 94.7258 26.0558 94.7258 25.5278 94.1978L4.4961 73.1663C3.9681 72.6383 3.9681 71.7823 4.4961 71.2543L11.9076 63.8428C12.4356 63.3148 13.2915 63.3148 13.8195 63.8428L34.8512 84.8745C35.3792 85.4023 35.3792 86.2585 34.8512 86.7863Z" fill="#94B6E3"/>
<path d="M12.2078 73.1661C11.6798 72.6381 11.6798 71.7822 12.2078 71.2542L16.7194 66.7425L13.8195 63.8427C13.2915 63.3147 12.4356 63.3147 11.9076 63.8427L4.4961 71.2542C3.9681 71.7822 3.9681 72.6381 4.4961 73.1661L25.5278 94.1978C26.0558 94.7258 26.9117 94.7258 27.4397 94.1978L30.3396 91.2979L12.2078 73.1661Z" fill="#94B6E3"/>
<path d="M75.3963 1.40625C70.5025 1.40625 65.8857 6.29194 61.8102 4.96294C61.3336 4.8075 60.8184 5.07356 60.6487 5.54531C59.5147 8.69906 58.894 12.0977 58.894 15.6422C58.894 27.1603 65.4164 35.5041 74.9682 40.4368C75.236 40.5752 75.5566 40.5752 75.8244 40.4368C85.3762 35.5041 91.8985 27.1603 91.8985 15.6422C91.8985 12.0977 91.2779 8.69906 90.1439 5.54531C89.9742 5.07356 89.459 4.8075 88.9824 4.96294C84.9069 6.29194 80.29 1.40625 75.3963 1.40625Z" fill="#F4E9CE"/>
<path d="M71.4987 27.9465C68.0674 26.4437 65.6691 23.0197 65.6691 19.034C65.6691 17.2698 66.141 15.617 66.9621 14.1905C66.9443 13.772 66.9321 13.3507 66.9321 12.9234C66.9321 9.67722 67.4539 6.55404 68.4128 3.62866C66.0951 4.70735 63.8826 5.63885 61.81 4.96291C61.3334 4.80747 60.8181 5.07354 60.6484 5.54529C59.5144 8.69904 58.8938 12.0977 58.8938 15.6422C58.8938 27.1603 65.4162 35.504 74.968 40.4368C75.2357 40.575 75.5564 40.575 75.8241 40.4368C77.8409 39.3954 79.7204 38.2001 81.4341 36.8567C77.4068 34.5311 73.9982 31.5538 71.4987 27.9465Z" fill="#F4E9CE"/>
<path d="M75.3963 28.7612C80.7685 28.7612 85.1234 24.4062 85.1234 19.0341C85.1234 13.6619 80.7685 9.30695 75.3963 9.30695C70.0242 9.30695 65.6692 13.6619 65.6692 19.0341C65.6692 24.4062 70.0242 28.7612 75.3963 28.7612Z" fill="#94DBE3"/>
<path d="M72.5621 19.0341C72.5621 14.8759 75.1723 11.3288 78.843 9.93732C77.7714 9.53101 76.6104 9.30695 75.3966 9.30695C70.0245 9.30695 65.6694 13.662 65.6694 19.0341C65.6694 24.4061 70.0245 28.7612 75.3966 28.7612C76.6104 28.7612 77.7714 28.5369 78.843 28.1308C75.1723 26.7394 72.5621 23.1923 72.5621 19.0341Z" fill="#94DBE3"/>
<path d="M93.3048 15.6422C93.3048 12.0176 92.6866 8.46056 91.4671 5.06925C91.0418 3.88725 89.7316 3.23906 88.5464 3.62606C86.8625 4.17563 84.7441 3.18394 82.502 2.13394C80.3663 1.13362 77.9453 0 75.3965 0C72.8476 0 70.4264 1.13363 68.2906 2.13375C66.0487 3.18356 63.931 4.17525 62.2462 3.62587C61.0606 3.23962 59.7503 3.88725 59.3257 5.06944C58.1063 8.46019 57.488 12.0174 57.488 15.6422C57.488 16.1719 57.5058 16.6959 57.5324 17.2166C52.9915 15.3669 48.0293 14.3438 42.8318 14.3438C21.2755 14.3438 3.73809 31.8812 3.73809 53.4375C3.73809 58.3665 4.65909 63.0831 6.33159 67.4301L3.50166 70.26C2.42653 71.3353 2.42653 73.0851 3.50166 74.1606L24.5333 95.1921C25.0542 95.7131 25.747 96 26.4837 96C27.2204 96 27.913 95.7131 28.4341 95.1921L32.4873 91.1389C35.7835 92.0449 39.2517 92.5312 42.8317 92.5312C46.4116 92.5312 49.8798 92.0449 53.176 91.1389L57.2292 95.1919C57.7501 95.7129 58.4429 95.9998 59.1796 95.9998C59.9163 95.9998 60.6089 95.7129 61.13 95.1919L69.1842 87.1376C69.7334 86.5884 69.7334 85.698 69.1842 85.149C68.6348 84.5998 67.7446 84.5998 67.1954 85.149L59.1796 93.1648L51.8448 85.83L72.7998 64.8752L80.1344 72.21L71.8357 80.5086C71.2865 81.0577 71.2865 81.9482 71.8357 82.4972C72.385 83.0464 73.2753 83.0464 73.8245 82.4972L82.1615 74.1602C82.6823 73.6391 82.9694 72.9465 82.9694 72.2098C82.9694 71.4729 82.6825 70.7803 82.1615 70.2594L79.3317 67.4297C81.0042 63.0827 81.9252 58.3661 81.9252 53.4371C81.9252 48.6926 81.0712 44.1452 79.5158 39.9345C88.438 34.2487 93.3048 25.7349 93.3048 15.6422ZM26.4839 93.165L5.52891 72.2102L12.8635 64.8756L33.8185 85.8304L26.4839 93.165ZM40.9763 38.3938H43.7519L46.3717 41.0136C46.8865 41.5286 47.1614 42.2134 47.1453 42.9418C47.1293 43.6695 46.8233 44.3424 46.2839 44.8363C45.2568 45.7762 43.5787 45.6984 42.5431 44.6625L33.2472 35.3666C32.2165 34.3357 32.2165 32.6588 33.247 31.6279C33.635 31.2401 34.1144 31.0005 34.6162 30.9053C34.6126 30.9714 34.606 31.0369 34.606 31.1038V32.0235C34.606 35.5361 37.4637 38.3938 40.9763 38.3938ZM37.4185 32.0235V31.1038C37.4185 30.6574 37.7819 30.2942 38.2282 30.2942H45.4595C46.4035 30.2942 47.255 30.7954 47.7237 31.5739L43.7159 35.5817H40.9763C39.0145 35.5813 37.4185 33.9853 37.4185 32.0235ZM41.7052 47.802C42.2099 48.3068 42.4848 48.978 42.4793 49.692C42.4737 50.406 42.1882 51.0729 41.6755 51.5698C40.645 52.5684 38.981 52.5555 37.9666 51.5408L27.5198 41.094H27.5197C27.0203 40.5947 26.7453 39.9307 26.7453 39.2246C26.7453 38.5185 27.0203 37.8546 27.5198 37.3552C28.019 36.8559 28.6829 36.5811 29.3892 36.5811C30.0953 36.5811 30.7593 36.8559 31.2584 37.3552L41.7052 47.802ZM34.1078 51.6596C34.6128 52.1646 34.8877 52.8358 34.882 53.5498C34.8766 54.2638 34.591 54.9306 34.0782 55.4276C33.0477 56.4264 31.3838 56.4131 30.3693 55.3986L23.5452 48.5745L21.7923 46.8216C21.293 46.3222 21.0181 45.6583 21.0181 44.9522C21.0181 44.2461 21.293 43.5821 21.7923 43.0828C22.3077 42.5674 22.9848 42.3097 23.6618 42.3097C24.3385 42.3097 25.0154 42.5672 25.5307 43.0823L25.5312 43.0828L34.1078 51.6596ZM21.5545 50.5613L26.1248 55.1316C26.629 55.6363 26.9037 56.3072 26.8981 57.0204C26.8925 57.7344 26.6069 58.4014 26.0943 58.8982C25.0636 59.8969 23.3999 59.8839 22.3853 58.8692L17.8177 54.3015C16.787 53.2706 16.787 51.5936 17.8175 50.5627C18.3329 50.0473 19.01 49.7897 19.687 49.7897C20.3632 49.7901 21.0393 50.0471 21.5545 50.5613ZM24.2555 62.4465C25.627 62.4465 26.9995 61.9378 28.0518 60.918C28.8068 60.1862 29.3215 59.2753 29.5597 58.2784C30.3869 58.7419 31.3128 58.9755 32.2394 58.9755C33.611 58.9755 34.9833 58.4668 36.0355 57.447C36.8339 56.6734 37.3649 55.6999 37.5826 54.6358C38.2958 54.9564 39.0659 55.1179 39.8365 55.1179C41.2081 55.1179 42.5806 54.6092 43.6328 53.5894C44.6911 52.5637 45.2802 51.1875 45.2917 49.7139C45.2954 49.2261 45.2345 48.7481 45.115 48.2889C46.2265 48.1723 47.3039 47.7156 48.1829 46.9108C49.2938 45.8938 49.9238 44.5063 49.957 43.0041C49.99 41.5011 49.4228 40.0879 48.3601 39.0251L46.3049 36.9699L50.7938 32.481C51.8251 31.4505 53.5021 31.4503 54.5326 32.481C55.5622 33.5106 55.5633 35.1851 54.5363 36.2162C54.5352 36.2173 54.5341 36.2184 54.5328 36.2197C53.9836 36.7689 53.9836 37.6594 54.533 38.2084C55.082 38.7576 55.9724 38.7574 56.5216 38.2084C57.5521 37.1777 59.2295 37.1777 60.26 38.2084C61.2895 39.2379 61.2907 40.9125 60.2635 41.9436C60.2624 41.9447 60.2613 41.9458 60.2602 41.9471H60.26C59.7108 42.4963 59.7108 43.3868 60.26 43.9358C60.8092 44.4849 61.6996 44.4849 62.2486 43.9358C62.7481 43.4363 63.4118 43.1614 64.1182 43.1614C64.8243 43.1614 65.4882 43.4362 65.9873 43.9356C67.0182 44.9664 67.0182 46.6436 65.9873 47.6743C65.4382 48.2235 65.4382 49.1139 65.9873 49.6629C66.5365 50.2121 67.427 50.2121 67.976 49.6629C68.4875 49.1516 69.1621 48.876 69.8902 48.8891C70.6126 48.9011 71.2833 49.1994 71.7785 49.7289C72.7403 50.757 72.6781 52.4383 71.6397 53.4767L61.55 63.5664C61.0008 64.1156 61.0008 65.0061 61.55 65.5551C62.0993 66.1043 62.9896 66.1043 63.5388 65.5551L66.0001 63.0947L68.3017 65.3962L53.378 80.3199L45.3072 72.2492C46.4551 71.8472 47.6772 71.6543 48.9108 71.7002L51.587 71.799C53.9444 71.8877 56.2707 71.313 58.3212 70.1413C58.9957 69.756 59.23 68.8969 58.8445 68.2226C58.4592 67.5482 57.5999 67.314 56.926 67.6991C55.3315 68.6102 53.5193 69.0564 51.691 68.9882L49.0148 68.8894C45.5167 68.7581 42.0899 70.1055 39.6145 72.5809L32.0808 80.1146L17.6202 65.6543L21.5435 61.731C22.3788 62.2071 23.3167 62.4465 24.2555 62.4465ZM42.8318 89.7188C40.0748 89.7188 37.391 89.4036 34.8087 88.8176L35.8458 87.7806C36.3667 87.2597 36.6537 86.5669 36.6537 85.8302C36.6537 85.0933 36.3668 84.4007 35.8458 83.8798L34.0696 82.1036L41.6035 74.5697C41.9478 74.2252 42.3168 73.9104 42.7047 73.6238L51.3893 82.3084L49.8179 83.8798C48.743 84.9551 48.743 86.7049 49.8181 87.7804L50.8552 88.8174C48.2727 89.4036 45.5888 89.7188 42.8318 89.7188ZM79.1131 53.4375C79.1131 57.5674 78.4182 61.5377 77.1412 65.2393L74.7503 62.8485C74.2295 62.3274 73.5367 62.0406 72.8 62.0406C72.0633 62.0406 71.3705 62.3274 70.8496 62.8485L70.2905 63.4076L67.9889 61.1061L73.6293 55.4657C75.728 53.3668 75.8197 49.9314 73.8333 47.808C72.8127 46.7167 71.4292 46.1021 69.9378 46.0772C69.8133 46.0749 69.689 46.0772 69.5654 46.0834C69.6406 44.595 69.1111 43.0813 67.9769 41.9469C66.9464 40.9164 65.5762 40.3489 64.1189 40.3489C64.0248 40.3489 63.931 40.3513 63.8378 40.356C63.913 38.8676 63.3837 37.3538 62.2493 36.2196C61.1142 35.0844 59.6007 34.5559 58.1103 34.6312C58.1864 33.1419 57.6569 31.6271 56.5218 30.4922C54.7109 28.6813 51.9338 28.413 49.8352 29.6854C48.8283 28.3324 47.224 27.4817 45.4598 27.4817H38.2285C37.4525 27.4817 36.7343 27.7292 36.1441 28.1464C34.4279 27.819 32.5848 28.3132 31.2586 29.6391C30.1242 30.7734 29.5953 32.2871 29.6707 33.7757C29.5773 33.771 29.4835 33.7684 29.3894 33.7684C27.932 33.7684 26.5617 34.3359 25.5314 35.3664C24.5007 36.3969 23.9332 37.7672 23.9332 39.2246C23.9332 39.3187 23.9358 39.4125 23.9405 39.5059C22.4521 39.4305 20.9384 39.9596 19.804 41.094C18.7733 42.1245 18.206 43.4947 18.206 44.9522C18.206 45.6956 18.3545 46.416 18.6359 47.0805C17.6069 47.2811 16.6248 47.7789 15.8292 48.5743C13.702 50.7017 13.702 54.1631 15.8292 56.2905L19.4183 59.8796L15.632 63.666L14.8145 62.8485C14.2936 62.3274 13.6008 62.0406 12.8641 62.0406C12.1274 62.0406 11.4348 62.3274 10.9139 62.8485L8.52309 65.2393C7.24622 61.5377 6.55134 57.5674 6.55134 53.4375C6.55134 33.432 22.8271 17.1562 42.8326 17.1562C48.1957 17.1562 53.2885 18.3298 57.8737 20.4277C59.3485 29.4611 65.0577 36.9013 74.3234 41.6863C74.6596 41.8599 75.0284 41.9469 75.3972 41.9469C75.7658 41.9469 76.1347 41.8601 76.4705 41.6865C76.6664 41.5853 76.8573 41.4804 77.0498 41.3769C78.3839 45.1521 79.1131 49.2109 79.1131 53.4375ZM75.3965 39.0742C70.7427 36.6332 67.0812 33.486 64.511 29.7169C61.717 25.6193 60.3003 20.8839 60.3003 15.6422C60.3003 12.4879 60.8142 9.39075 61.829 6.42881C64.4172 7.05319 66.9905 5.84831 69.4831 4.68094C71.4449 3.76237 73.4733 2.8125 75.3965 2.8125C77.3195 2.8125 79.3478 3.76237 81.3095 4.68094C83.8023 5.8485 86.3757 7.05337 88.9638 6.42881C89.9783 9.39056 90.4923 12.4881 90.4923 15.6422C90.4923 20.8839 89.0755 25.6193 86.2816 29.7169C83.7115 33.4858 80.05 36.6332 75.3965 39.0742Z" fill="#1E2875"/>
<path d="M85.1008 17.4671C85.8419 17.2352 86.2546 16.4462 86.0227 15.705C84.5617 11.037 80.2914 7.9007 75.3965 7.9007C69.2576 7.9007 64.2629 12.8951 64.2629 19.0341C64.2629 25.173 69.2576 30.1674 75.3965 30.1674C79.9514 30.1674 84.0016 27.4389 85.7146 23.2161C86.0066 22.4964 85.6599 21.6763 84.9401 21.3844C84.2201 21.0921 83.4001 21.4391 83.1082 22.1588C81.8278 25.3151 78.8006 27.3548 75.3963 27.3548C70.808 27.3548 67.0753 23.622 67.0753 19.0339C67.0753 14.4458 70.808 10.713 75.3963 10.713C79.055 10.713 82.2466 13.0568 83.3384 16.545C83.5706 17.2864 84.3603 17.6991 85.1008 17.4671Z" fill="#1E2875"/>
<path d="M79.0811 15.6146L74.7386 19.9573L71.7112 16.93C71.1619 16.3808 70.2716 16.3808 69.7224 16.93C69.1733 17.4791 69.1733 18.3696 69.7224 18.9186L73.7441 22.9403C74.0188 23.2148 74.3788 23.3522 74.7386 23.3522C75.0984 23.3522 75.4584 23.215 75.7331 22.9403L81.0701 17.6033C81.6193 17.0541 81.6193 16.1636 81.0701 15.6146C80.5207 15.0655 79.6305 15.0655 79.0811 15.6146Z" fill="#1E2875"/>
</g>
<defs>
<clipPath id="clip0_2001_2447">
<rect width="96" height="96" fill="white"/>
</clipPath>
</defs>
</svg>
