<svg width="96" height="96" viewBox="0 0 96 96" fill="none" xmlns="http://www.w3.org/2000/svg">
<g clip-path="url(#clip0_2001_1270)">
<path d="M9.60181 94.5937C9.60181 94.5315 21.0479 84.8156 48.0393 84.8156C74.2572 84.8156 86.4768 94.5315 86.4768 94.5937H9.60181Z" fill="#94DBE3"/>
<path d="M48.0394 84.8158C46.3651 84.8158 44.7507 84.8533 43.1948 84.9236C66.1636 85.9843 76.9144 94.5356 76.9144 94.5939H86.4769C86.4769 94.5315 74.2574 84.8158 48.0394 84.8158Z" fill="#94DBE3"/>
<path d="M65.4942 17.1639C62.3667 26.2356 53.9393 27.7967 53.9393 27.7967C53.9393 27.7967 48.355 21.1106 51.4011 12.2747C54.6096 2.96737 63.0372 1.40625 63.0372 1.40625C63.0372 1.40625 68.6622 7.97456 65.4942 17.1639Z" fill="#F4E9CE"/>
<path d="M63.0372 1.40625C63.0372 1.40625 60.8099 1.81912 58.2094 3.4845C59.6384 6.12 61.4095 11.064 59.3067 17.1638C57.7938 21.5522 55.0407 24.1828 52.6013 25.7295C53.317 27.0506 53.9393 27.7963 53.9393 27.7963C53.9393 27.7963 62.3669 26.2354 65.4942 17.1636C68.6622 7.97456 63.0372 1.40625 63.0372 1.40625Z" fill="#F4E9CE"/>
<path d="M57.0917 59.8117C51.954 60.5419 48.1717 59.4924 48.1717 59.4924C48.1717 59.4924 44.9006 46.3665 55.1229 36.1117C65.8905 25.3101 78.7026 28.8651 78.7026 28.8651C78.7026 28.8651 81.513 39.5788 74.0655 49.5349" fill="#F4E9CE"/>
<path d="M78.7027 28.8651C78.7027 28.8651 75.2673 27.9124 70.4596 28.4929C71.7581 28.6556 72.5152 28.8651 72.5152 28.8651C72.5152 28.8651 75.3256 39.5788 67.8781 49.5349L50.9043 59.8117C50.7164 59.8384 50.5308 59.862 50.3467 59.8841C51.9483 60.0816 54.3224 60.2053 57.0918 59.8117L74.0656 49.5349C81.5131 39.5788 78.7027 28.8651 78.7027 28.8651Z" fill="#F4E9CE"/>
<path d="M35.9188 52.9279C45.0381 60.1151 43.482 70.4171 43.482 70.4171C43.482 70.4171 33.6356 74.1853 24.7534 67.1846C15.3973 59.8106 16.9534 49.5088 16.9534 49.5088C16.9534 49.5088 26.6813 45.6473 35.9188 52.9279Z" fill="#F4E9CE"/>
<path d="M25.4615 38.1043C34.643 49.8026 47.784 47.7909 47.784 47.7909C47.784 47.7909 52.5781 35.1446 43.6351 23.7501C34.2151 11.748 21.0742 13.7595 21.0742 13.7595C21.0742 13.7595 16.1608 26.2541 25.4615 38.1043Z" fill="#F4E9CE"/>
<path d="M71.6908 65.1152C63.8122 70.5624 56.1021 66.8091 56.1021 66.8091C56.1021 66.8091 55.5544 58.1036 63.2284 52.7979C71.3117 47.2093 79.0217 50.9627 79.0217 50.9627C79.0217 50.9627 79.6717 59.5973 71.6908 65.1152Z" fill="#F4E9CE"/>
<path d="M79.0218 50.9627C79.0218 50.9627 75.0029 49.0071 69.7263 50.0222C71.6511 50.3869 72.8343 50.9627 72.8343 50.9627C72.8343 50.9627 73.4841 59.5973 65.5032 65.1152C63.367 66.5921 61.2438 67.3916 59.2827 67.7741C62.2578 68.3389 66.9432 68.3976 71.6907 65.1152C79.6718 59.5973 79.0218 50.9627 79.0218 50.9627Z" fill="#F4E9CE"/>
<path d="M86.7108 93.0064C83.9298 91.0462 80.759 89.5866 77.5949 88.3689C71.8857 86.172 62.3849 83.5659 49.2266 83.4167C49.4403 81.5968 49.9466 78.9829 51.1321 76.0725C52.31 73.1811 53.9043 70.5735 55.9019 68.2564C56.84 68.6426 59.2542 69.4888 62.4097 69.4888C65.3317 69.4888 68.8882 68.7622 72.4904 66.2719C81.0361 60.3636 80.453 51.2424 80.4239 50.8571C80.3864 50.3584 80.0868 49.9172 79.6374 49.6984C79.5089 49.6359 78.2928 49.0605 76.3711 48.6703C77.9382 46.2107 79.0878 43.5407 79.7962 40.7074C80.2359 38.9475 77.5079 38.2657 77.0675 40.0252C76.3205 43.0132 75.0245 45.7993 73.2146 48.315C70.1694 48.2432 66.3457 48.9332 62.4286 51.6412C59.5091 53.6599 57.686 56.1163 56.5486 58.4638C54.0807 58.7781 51.9597 58.6626 50.5227 58.4859C53.3799 54.6321 60.827 45.2916 69.2114 40.4132C70.7793 39.501 69.3648 37.0697 67.7971 37.9822C59.6381 42.7294 52.5363 51.18 49.1135 55.6667C48.9161 51.2891 49.6751 43.5686 56.1191 37.1044C60.3189 32.8912 65.3178 30.45 70.9764 29.8489C73.9383 29.5342 76.3211 29.8329 77.5076 30.0467C77.6324 30.7806 77.7862 31.9656 77.8122 33.4532C77.8439 35.2498 80.6562 35.2281 80.6244 33.4039C80.5734 30.4851 80.0834 28.5874 80.0628 28.5081C79.9357 28.0237 79.5609 27.6437 79.0784 27.5098C78.9376 27.4708 75.5662 26.5562 70.8087 27.0384C66.4304 27.4826 59.9825 29.2449 54.1272 35.1186C53.6388 35.6087 53.1817 36.1052 52.751 36.606C53.5407 34.1743 54.4031 31.5442 55.2843 28.8992C57.8315 28.122 64.1221 25.4589 66.824 17.622C70.2153 7.78424 64.3565 0.784493 64.1054 0.491243C63.7792 0.110056 63.2744 -0.0682567 62.7811 0.0232433C62.4041 0.0931808 53.5081 1.84818 50.0716 11.8161C47.2184 20.0919 51.2844 26.5596 52.5269 28.2649C51.707 30.7279 50.9064 33.1697 50.1667 35.4461C49.5972 31.6416 48.113 27.1777 44.7414 22.8819C39.6194 16.3556 33.4242 13.8416 29.1288 12.8816C24.4616 11.8386 21.0063 12.3472 20.8614 12.3696C20.3662 12.4453 19.9488 12.7789 19.7654 13.245C19.7259 13.3455 18.794 15.7481 18.476 19.4327C18.3204 21.24 21.1222 21.4813 21.2782 19.6746C21.4572 17.5989 21.8553 15.9789 22.1216 15.0746C23.3268 15.0032 25.7276 14.9893 28.6293 15.6523C34.1778 16.92 38.8542 19.9367 42.5289 24.6184C46.01 29.0541 47.7359 34.1998 47.6587 39.9129C47.6334 41.7744 47.4102 43.3978 47.1639 44.6449C41.6009 34.2844 33.7242 26.3246 33.3789 25.9781C32.0986 24.6936 30.107 26.6786 31.3869 27.9634C31.4699 28.0468 39.5896 36.2578 44.9686 46.5077C43.7118 46.479 42.0813 46.3402 40.2526 45.9358C34.7467 44.7176 30.1422 41.7906 26.5676 37.236C24.0787 34.0646 22.4307 30.5451 21.6695 26.7752C21.3106 24.9973 18.5534 25.5538 18.9127 27.3319C19.7615 31.536 21.5926 35.4525 24.3552 38.9724C29.3568 45.3452 35.4976 47.7846 39.7681 48.7087C41.8962 49.1694 44.0894 49.3881 46.2671 49.3168V54.3812V54.4654V72.9969C45.8427 72.0819 45.3845 71.2159 44.9019 70.3959C45.0926 68.7315 45.7863 58.9142 36.7891 51.8231C27.0271 44.1294 16.8622 48.0315 16.4341 48.2016C15.9693 48.3861 15.6372 48.8038 15.5626 49.2986C15.4942 49.7522 13.9979 60.4986 23.8826 68.289C28.4737 71.9074 33.2712 72.852 37.0293 72.852C39.4679 72.852 41.4678 72.4543 42.6903 72.1312C44.6482 75.5507 45.8056 79.3252 46.1532 83.4272C38.8756 83.5502 32.0861 84.3857 25.9482 85.9194C24.1884 86.3593 24.8701 89.0874 26.6302 88.6481C32.5794 87.1614 39.1784 86.3533 46.2671 86.238V89.4703C46.2671 91.2842 49.0796 91.2842 49.0796 89.4703V86.2299C65.6651 86.3947 76.2648 90.4554 81.5358 93.1877H14.3902C15.7569 92.4607 17.5066 91.6371 19.6642 90.8166C21.3596 90.1717 20.3596 87.5422 18.6644 88.1876C15.1617 89.5198 12.6676 90.8715 11.1918 91.7707C8.19556 93.5964 8.19556 94.0367 8.19556 94.5939C8.19556 95.3706 8.82499 96.0002 9.60181 96.0002H86.4768C88.6143 96 87.7732 93.7552 86.7108 93.0064ZM64.0282 53.9546C69.9618 49.8525 75.5969 51.2047 77.6234 51.9146C77.5445 54.0866 76.7587 59.9017 70.8911 63.9585C65.5706 67.6372 60.3946 66.7547 58.0366 66.0345C60.8086 63.4404 64.1801 61.2862 68.1369 59.5911C69.8041 58.8767 68.6969 56.2916 67.0295 57.0058C63.4595 58.5352 60.5169 60.3564 58.0876 62.3076C58.8189 59.6979 60.4426 56.4336 64.0282 53.9546ZM53.4204 61.4767C54.0502 61.4767 54.7214 61.4541 55.4253 61.4029C54.9622 63.0097 54.7833 64.4231 54.7192 65.4157C52.0561 68.2425 50.2717 71.1589 49.0796 73.743V61.1199C50.0658 61.29 51.5688 61.4767 53.4204 61.4767ZM52.7306 12.7329C55.0854 5.90249 60.4197 3.63881 62.4747 3.00393C63.6956 4.80337 66.4931 9.95231 64.1649 16.7057C62.4217 21.7624 58.9231 24.2578 56.4461 25.4385C58.2721 20.0415 60.0764 14.9286 61.3854 11.7186C62.0705 10.0389 59.4659 8.97674 58.7812 10.6566C57.4154 14.0055 55.5547 19.2812 53.6876 24.8038C52.4088 22.3567 50.9236 17.9741 52.7306 12.7329ZM25.6237 66.0801C22.0374 63.2537 19.7223 59.6561 18.7426 55.3875C18.2622 53.2946 18.2364 51.5385 18.2778 50.5584C20.6748 49.8868 28.0254 48.4972 35.0482 54.0324C38.5351 56.7806 40.7802 60.3214 41.7215 64.5561C41.8584 65.1718 41.9557 65.7577 42.0247 66.3045C41.0881 65.1756 40.1351 64.1809 39.2174 63.3201C34.3659 58.7679 29.5501 56.8618 29.3474 56.7829C27.6571 56.1244 26.6366 58.7454 28.3269 59.4037C28.3713 59.421 32.834 61.1874 37.2929 65.3711C38.7176 66.7078 39.9721 68.1247 41.0596 69.6176C37.9439 70.2529 31.5369 70.7404 25.6237 66.0801Z" fill="#1E2875"/>
</g>
<defs>
<clipPath id="clip0_2001_1270">
<rect width="96" height="96" fill="white"/>
</clipPath>
</defs>
</svg>
