<?xml version="1.0" encoding="UTF-8"?>
<svg xmlns="http://www.w3.org/2000/svg" width="114" height="114" viewBox="0 0 114 114" fill="none">
  <path d="M49.875 55.1475V92.625H103.312V3.5625H49.875V46.0987" fill="#F4E9CE"></path>
  <path d="M32.0625 78.375V110.438H24.9375L19.5938 85.5L14.25 110.438H7.125V78.375" fill="#94B6E3"></path>
  <path d="M16.0312 42.75H23.1562C29.0522 42.75 33.8438 47.5416 33.8438 53.4375V78.375H5.34375V53.4375C5.34375 47.5416 10.1353 42.75 16.0312 42.75Z" fill="#94DBE3"></path>
  <path d="M34.3765 57.1247L28.534 52.9566C26.824 51.7275 24.4727 51.9235 22.9765 53.4197C21.0527 55.3435 21.3734 58.5497 23.6355 60.046L34.3765 67.2066L53.8277 52.0838C55.5377 50.7478 55.698 48.2363 54.1662 46.7044C52.9193 45.4575 50.9599 45.2972 49.5349 46.3125L34.3765 57.1425V57.1247Z" fill="#94B6E3"></path>
  <path d="M19.5938 37.4062C25.4963 37.4062 30.2812 32.6213 30.2812 26.7188C30.2812 20.8162 25.4963 16.0312 19.5938 16.0312C13.6912 16.0312 8.90625 20.8162 8.90625 26.7188C8.90625 32.6213 13.6912 37.4062 19.5938 37.4062Z" fill="#94B6E3"></path>
  <path d="M19.5938 39.1875C26.4694 39.1875 32.0625 33.5944 32.0625 26.7188C32.0625 19.8431 26.4694 14.25 19.5938 14.25C12.7181 14.25 7.125 19.8431 7.125 26.7188C7.125 33.5944 12.7181 39.1875 19.5938 39.1875ZM19.5938 17.8125C24.51 17.8125 28.5 21.8025 28.5 26.7188C28.5 31.635 24.51 35.625 19.5938 35.625C14.6775 35.625 10.6875 31.635 10.6875 26.7188C10.6875 21.8025 14.6775 17.8125 19.5938 17.8125Z" fill="#1E2875"></path>
  <path d="M33.8438 80.1562C34.8234 80.1562 35.625 79.3547 35.625 78.375V68.4891L48.0938 58.7991V92.6428C48.0938 93.6225 48.8953 94.4241 49.875 94.4241H103.312C104.292 94.4241 105.094 93.6225 105.094 92.6428V3.5625C105.094 2.58281 104.292 1.78125 103.312 1.78125H49.875C48.8953 1.78125 48.0938 2.58281 48.0938 3.5625V45.1369L35.625 54.0431V53.4375C35.625 46.5619 30.0319 40.9688 23.1562 40.9688H16.0312C9.15563 40.9688 3.5625 46.5619 3.5625 53.4375V78.375C3.5625 79.3547 4.36406 80.1562 5.34375 80.1562V108.656H1.78125V112.219H112.219V108.656H33.8438V80.1562ZM51.6562 5.34375H101.531V90.8438H51.6562V56.0203L54.9159 53.4731C54.9159 53.4731 54.9338 53.4375 54.9516 53.4375H87.2634V49.875H56.9287C56.9287 49.7681 56.9822 49.6791 56.9822 49.5722C57.0713 48.0403 56.5013 46.5262 55.4147 45.4397C54.3816 44.4066 53.0278 43.89 51.6384 43.8722V5.34375H51.6562ZM35.4112 58.5675L50.5697 47.7375C51.3 47.2209 52.2797 47.2922 52.9031 47.9334C53.2772 48.3075 53.4731 48.8063 53.4375 49.3406C53.4019 49.875 53.1525 50.3381 52.7428 50.6588L34.3069 64.9978L24.6347 58.5497C24.0112 58.1222 23.6016 57.4453 23.5303 56.6972C23.4591 55.9491 23.7262 55.2009 24.2606 54.6666C24.7594 54.1678 25.4006 53.9184 26.0419 53.9184C26.5584 53.9184 27.075 54.0788 27.5203 54.3994L33.3628 58.5675C33.9862 59.0128 34.8056 59.0128 35.4291 58.5675H35.4112ZM16.4587 108.656L19.5938 93.9966L22.7288 108.656H16.4409H16.4587ZM30.2812 108.656H26.3803L21.3394 85.1259C21.1612 84.3066 20.4309 83.7188 19.5938 83.7188C18.7566 83.7188 18.0263 84.3066 17.8481 85.1259L12.8072 108.656H8.90625V80.1562H30.2812V108.656ZM32.0625 76.5938H7.125V53.4375C7.125 48.5213 11.115 44.5312 16.0312 44.5312H23.1562C28.0191 44.5312 31.9556 48.4322 32.0447 53.2772L29.5688 51.4959C27.1284 49.7503 23.8331 50.0353 21.7312 52.1372C20.4309 53.4375 19.7897 55.2188 19.9856 57.0356C20.1816 58.8525 21.1434 60.4912 22.6753 61.5066L32.0981 67.7766V76.5759L32.0625 76.5938Z" fill="#1E2875"></path>
  <path d="M60.0442 23.1562C60.0442 23.1562 60.0977 23.1562 60.1155 23.1562C60.6677 23.1384 61.1664 22.8534 61.487 22.4081L69.1286 11.7206L66.2252 9.65436L59.9195 18.4894L58.352 16.6547L55.6445 18.9703L58.6905 22.5328C59.0289 22.9247 59.5277 23.1562 60.0442 23.1562Z" fill="#1E2875"></path>
  <path d="M67.6875 19.5938H74.8125V23.1562H67.6875V19.5938Z" fill="#1E2875"></path>
  <path d="M78.375 19.5938H97.9688V23.1562H78.375V19.5938Z" fill="#1E2875"></path>
  <path d="M90.8438 26.7188H97.9688V30.2812H90.8438V26.7188Z" fill="#1E2875"></path>
  <path d="M55.2188 26.7188H87.2812V30.2812H55.2188V26.7188Z" fill="#1E2875"></path>
  <path d="M60.0442 71.25C60.0442 71.25 60.0977 71.25 60.1155 71.25C60.6677 71.2322 61.1664 70.9472 61.487 70.5019L69.1286 59.8144L66.2252 57.7481L59.9195 66.5831L58.352 64.7484L55.6445 67.064L58.6905 70.6265C59.0289 71.0184 59.5277 71.25 60.0442 71.25Z" fill="#1E2875"></path>
  <path d="M67.6875 67.6875H74.8125V71.25H67.6875V67.6875Z" fill="#1E2875"></path>
  <path d="M78.375 67.6875H97.9688V71.25H78.375V67.6875Z" fill="#1E2875"></path>
  <path d="M90.8438 74.8125H97.9688V78.375H90.8438V74.8125Z" fill="#1E2875"></path>
  <path d="M55.2188 74.8125H87.2812V78.375H55.2188V74.8125Z" fill="#1E2875"></path>
  <path d="M67.6875 42.75H74.8125V46.3125H67.6875V42.75Z" fill="#1E2875"></path>
  <path d="M78.375 42.75H97.9688V46.3125H78.375V42.75Z" fill="#1E2875"></path>
  <path d="M90.8438 49.875H97.9688V53.4375H90.8438V49.875Z" fill="#1E2875"></path>
  <path d="M63.0759 33.9328L60.5644 36.4444L58.0528 33.9328L55.5234 36.4444L58.0528 38.9737L55.5234 41.4853L58.0528 44.0147L60.5644 41.4853L63.0759 44.0147L65.6053 41.4853L63.0759 38.9737L65.6053 36.4444L63.0759 33.9328Z" fill="#1E2875"></path>
</svg>
